<?xml version="1.0" encoding="UTF-8" standalone="no"?>
<!-- Created with Inkscape (http://www.inkscape.org/) -->

<svg
   width="1280"
   height="80"
   viewBox="0 0 338.66663 21.166665"
   version="1.1"
   id="svg1"
   xml:space="preserve"
   inkscape:version="1.3.2 (091e20e, 2023-11-25, custom)"
   sodipodi:docname="tr_jump.svg"
   xmlns:inkscape="http://www.inkscape.org/namespaces/inkscape"
   xmlns:sodipodi="http://sodipodi.sourceforge.net/DTD/sodipodi-0.dtd"
   xmlns="http://www.w3.org/2000/svg"
   xmlns:svg="http://www.w3.org/2000/svg"><sodipodi:namedview
     id="namedview1"
     pagecolor="#ffffff"
     bordercolor="#000000"
     borderopacity="0.25"
     inkscape:showpageshadow="2"
     inkscape:pageopacity="0.0"
     inkscape:pagecheckerboard="true"
     inkscape:deskcolor="#d1d1d1"
     inkscape:document-units="px"
     labelstyle="default"
     showgrid="true"
     inkscape:zoom="0.94732283"
     inkscape:cx="481.3565"
     inkscape:cy="-89.198737"
     inkscape:window-width="1920"
     inkscape:window-height="1009"
     inkscape:window-x="1912"
     inkscape:window-y="-8"
     inkscape:window-maximized="1"
     inkscape:current-layer="g232"><inkscape:grid
       id="grid1"
       units="px"
       originx="-5.1405632e-17"
       originy="0"
       spacingx="0.2645833"
       spacingy="0.26458331"
       empcolor="#0099e5"
       empopacity="0.30196078"
       color="#0099e5"
       opacity="0.14901961"
       empspacing="5"
       dotted="false"
       gridanglex="30"
       gridanglez="30"
       visible="true" /></sodipodi:namedview><defs
     id="defs1"><inkscape:path-effect
       effect="fillet_chamfer"
       id="path-effect4"
       is_visible="true"
       lpeversion="1"
       nodesatellites_param="F,0,0,1,0,0,0,1 @ F,0,0,1,0,0,0,1 @ F,0,0,1,0,0,0,1 @ F,0,0,1,0,0,0,1 @ F,0,0,1,0,0,0,1 @ F,0,0,1,0,0,0,1 @ F,0,0,1,0,0,0,1 @ F,0,0,1,0,0,0,1 @ F,0,0,1,0,0,0,1 @ F,0,0,1,0,0,0,1"
       radius="0"
       unit="px"
       method="auto"
       mode="F"
       chamfer_steps="1"
       flexible="false"
       use_knot_distance="true"
       apply_no_radius="true"
       apply_with_radius="true"
       only_selected="false"
       hide_knots="false" /></defs><g
     inkscape:label="Слой 1"
     inkscape:groupmode="layer"
     id="layer1"><g
       id="g230"
       transform="translate(0.15877056)"
       inkscape:groupmode="layer"
       inkscape:label="8" /><g
       id="g228"
       transform="translate(0.15877056)"
       inkscape:groupmode="layer"
       inkscape:label="7" /><g
       id="g231"
       transform="translate(0.15877056)"
       inkscape:groupmode="layer"
       inkscape:label="6" /><g
       id="g232"
       transform="translate(0.15877056)"
       inkscape:groupmode="layer"
       inkscape:label="5"><path
         style="fill:#79564b;fill-opacity:1;stroke:#000000;stroke-width:0.100012;stroke-dasharray:none;stroke-opacity:1"
         d="m 170.58661,4.7565105 c 0.56138,0.8320166 10.43461,1.3597791 12.15753,3.8360306 2.15019,2.6355959 3.29146,6.2885329 6.68311,7.5747179 1.43034,0.104193 2.84527,0.131305 4.15544,-0.365313 l 1.78091,-1.369926 c 3.60449,0.252696 3.22739,-0.821803 4.15544,-1.461255 l -0.41098,-2.876845 c -0.41156,-0.5575409 -0.69672,-1.1846099 -2.28321,-1.0959409 -0.81438,-1.778542 -1.86748,-3.4101738 -3.47048,-4.7034131 -3.21581,-1.2819649 -6.93214,0.094108 -10.32011,0.1826569 0.0108,0.2643309 -12.82362,-0.2779538 -12.44765,0.2792876 z"
         id="path48"
         sodipodi:nodetypes="scccccccccs"
         inkscape:label="body" /><path
         style="fill:#79564b;fill-opacity:1;stroke:#000000;stroke-width:0.1;stroke-opacity:1"
         d="m 199.0624,9.9797591 c 0.0758,0.02865 0.47465,-0.369638 1.09594,-0.856204 0.90127,-0.486211 0.98662,-0.314222 1.43842,-0.308233 l 0.18266,4.1554429 c -0.19105,0.150083 -0.44065,0.139117 -0.75346,-0.04566 -0.36938,-0.442286 -0.58048,-0.356989 -0.86762,-0.525138 -0.27805,0.08142 -0.54923,0.173155 -0.7078,0.433809 z"
         id="path49"
         sodipodi:nodetypes="cccccccc"
         inkscape:label="neck" /><g
         id="g54"
         style="fill:#79564b;fill-opacity:1"
         inkscape:label="head"
         transform="translate(170.33962,-2.9660418)"><path
           style="fill:#79564b;fill-opacity:1;stroke:#000000;stroke-width:0.1;stroke-opacity:1"
           d="m 31.094755,13.432418 c 0.08965,2.693789 0.739973,3.064791 1.420739,3.30967 1.230129,0.55243 2.195473,0.409798 3.083641,0.06458 0.597728,-0.569163 1.172811,-0.889216 1.727489,-0.984829 1.166251,0.739274 1.472914,0.872987 1.808209,0.887961 1.065303,-0.173732 1.104653,-0.779444 1.404591,-1.275434 0.322387,-0.242476 0.468248,-0.590867 0.64579,-0.92025 0.07417,-0.101719 0.415625,-0.07871 0.08072,-0.371329 0.05856,-1.066289 -0.286944,-1.459127 -0.678079,-1.77592 -0.335076,-0.24245 -0.714621,-0.381138 -1.178565,-0.322895 -0.724026,0.314031 -1.264432,0.370994 -1.775921,0.387473 -0.598585,-0.343654 -1.182654,-0.759882 -1.759775,-1.210854 -0.621406,-0.797597 -1.353655,-1.171977 -2.211829,-1.065553 -1.091797,0.189092 -2.078942,0.494465 -2.405565,1.53375 z"
           id="path50"
           sodipodi:nodetypes="ccccccccccccccc" /><path
           style="fill:#79564b;fill-opacity:1;stroke:#000000;stroke-width:0.1;stroke-opacity:1"
           d="m 34.065494,11.039321 c -0.553502,0.216626 -1.166655,0.338511 -1.221517,1.347094 0.142995,1.096327 0.882332,1.265013 1.552582,1.541166 3.032467,0.506314 5.955258,1.067428 6.940959,0.502306"
           id="path51"
           sodipodi:nodetypes="cccc" /><path
           style="fill:#c5bb8c;fill-opacity:1;stroke:#000000;stroke-width:0.1;stroke-opacity:1"
           d="m 36.371536,12.306502 c 0.08637,0.344896 0.337614,0.520469 0.821954,0.456642 -0.112753,-0.323819 -0.346579,-0.608478 -0.821954,-0.456642 z"
           id="path52"
           sodipodi:nodetypes="ccc" /><path
           style="fill:#79564b;fill-opacity:1;stroke:#000000;stroke-width:0.1;stroke-opacity:1"
           d="m 37.044091,12.479879 -0.05853,0.14732"
           id="path53" /><path
           style="fill:#c2c1ac;fill-opacity:1;stroke:#000000;stroke-width:0.05;stroke-dasharray:none;stroke-opacity:1"
           d="m 34.69503,13.993447 c 0.004,0.02825 -0.05247,0.326931 -0.05247,0.326931 l 0.217953,-0.238135 0.01212,0.298678 0.230063,-0.246207 v 0.330967 l 0.314822,-0.286569 -0.108979,0.460125 0.375367,-0.423799 c 0,0 -0.141266,0.480305 -0.108976,0.456088 0.03229,-0.02422 0.387471,-0.407654 0.387471,-0.407654 l -0.125121,0.476269 0.387474,-0.439944 -0.09283,0.500487 0.351147,-0.492414 -0.125121,0.58121 0.351147,-0.536812 c 0,0 -0.108977,0.532776 -0.08072,0.52874 0.02825,-0.004 0.399582,-0.480306 0.399582,-0.480306 l -0.125122,0.544885 c 0,0 0.383437,-0.504523 0.375365,-0.47627 -0.0081,0.02825 -0.100904,0.516631 -0.100904,0.516631 l 0.395544,-0.456088 -0.117049,0.49645 0.375367,-0.460125 -0.185666,0.548921 0.407654,-0.516631 -0.104939,0.504523 0.363257,-0.468197 c 0,0 -0.08476,0.460125 -0.08073,0.476269 0.004,0.01614 0.330968,-0.456089 0.330968,-0.456089 l -0.0888,0.516632 0.351147,-0.47627 -0.145301,0.508559 0.375364,-0.484342 c 0,0 -0.169519,0.609464 -0.153374,0.569102 0.01614,-0.04036 0.34711,-0.556993 0.34711,-0.556993 0,0 -0.117049,0.52874 -0.113012,0.544885 0.004,0.01614 0.435907,-0.589283 0.435907,-0.565066 0,0.02422 -0.125122,0.637717 -0.125122,0.637717 l 0.391512,-0.6135 -0.125124,0.637717 0.423802,-0.641753 -0.117052,0.69826 c 0,0 0.359222,-0.754766 0.359222,-0.714405 0,0.04036 -0.07265,0.730549 -0.07265,0.730549 l 0.415727,-0.762838 -0.07669,0.714404 0.435906,-0.819345 c -1.231258,0.274857 -3.835934,-0.169695 -6.385246,-0.585247 z"
           id="path54"
           sodipodi:nodetypes="cccccccccscccccccccccccccccccccccccsccscccccsccccc" /></g><g
         id="g71"
         style="fill:#79564b;fill-opacity:1"
         transform="rotate(-32.515709,92.116955,-269.40882)"
         inkscape:label="leg"
         inkscape:transform-center-x="-4.2908949"
         inkscape:transform-center-y="4.0424182"><path
           style="fill:#79564b;fill-opacity:1;stroke:#000000;stroke-width:0.100012;stroke-dasharray:none;stroke-opacity:1"
           d="m 23.27703,15.996212 c -1.675359,1.707675 -1.459615,3.292018 -0.342482,4.817574 0.812037,2.083208 1.551651,2.428287 2.306042,3.127998 l 2.260378,0.410977 c 1.502487,-1.934313 2.430309,-3.733411 1.872232,-5.182886 0.530105,-4.399689 -1.085603,-4.567358 -2.694187,-4.749078 -1.133994,0.315304 -2.267989,0.662863 -3.401983,1.575415 z"
           id="path55"
           sodipodi:nodetypes="ccccccc" /><g
           id="g70"
           style="fill:#79564b;fill-opacity:1"
           transform="rotate(34.14401,15.250735,30.265897)"><path
             style="fill:#79564b;fill-opacity:1;stroke:#000000;stroke-width:0.100012;stroke-dasharray:none;stroke-opacity:1"
             d="m 19.725312,17.756449 c -0.331158,0.449698 -0.783453,0.788488 -0.340859,1.879157 0.06498,0.485688 0.03163,0.948686 -0.182657,1.369927 -0.630949,0.215354 -1.050745,0.563196 -0.593634,1.461254 0.392656,1.392809 0.0069,2.231712 -0.41628,3.189807 -0.04286,0.355577 0.677477,0.324671 1.055579,0.303504 0.286001,-0.02643 0.580033,-0.101052 0.844787,0 0.968201,0.209736 1.397508,0.166658 1.758072,0.09133 0.320857,0.182815 1.176569,0.211117 2.465867,0.11416 0.539109,-0.198605 0.347973,-0.459803 0.151156,-0.721488 l 0.314822,0.363257 c 0.816216,-0.04081 0.357509,-0.326794 0.104941,-0.573138 -0.733645,-1.15487 -1.25062,-1.246083 -1.751704,-1.259289 -0.297143,0.02082 -0.527513,-0.02295 -1.089769,0.242171 -0.449187,0.258754 -1.022797,0.206449 -1.687125,-0.07265 -0.623956,-1.119353 -1.010634,-2.088429 -0.355184,-2.397492 0.02837,-1.00966 0.437227,-1.829078 1.283507,-2.429783 l 0.113013,-0.379401 c 0.442885,-0.03608 0.591351,-0.36657 0.694223,-0.742658 z"
             id="path56"
             sodipodi:nodetypes="cccccccccccccccccccc" /><path
             style="fill:#c8bfb0;fill-opacity:1;stroke:#000000;stroke-width:0.100012;stroke-dasharray:none;stroke-opacity:1"
             d="m 23.305867,24.658669 c 0.118036,0.19811 0.22445,0.402861 0.445226,0.542262 0.218235,-0.166196 0.385536,-0.171612 0.513722,-0.142701 -0.182726,-0.466134 -0.601781,-0.384066 -0.958948,-0.399561 z"
             id="path57"
             sodipodi:nodetypes="cccc" /><path
             style="fill:#c8bfb0;fill-opacity:1;stroke:#000000;stroke-width:0.100012;stroke-dasharray:none;stroke-opacity:1"
             d="m 23.956581,24.339019 c -0.0056,0.06468 0.365178,0.595553 0.43381,0.587927 0.195976,-0.262378 0.397659,-0.124497 0.593635,-0.02284 -0.330488,-0.621709 -0.682172,-0.564347 -1.027445,-0.565087 z"
             id="path69"
             sodipodi:nodetypes="cccc" /></g></g></g><g
       id="g233"
       transform="translate(0.15877056)"
       inkscape:groupmode="layer"
       inkscape:label="4"><path
         style="fill:#79564b;fill-opacity:1;stroke:#000000;stroke-width:0.1;stroke-opacity:1"
         d="m 156.92332,8.1262336 c 0.0742,0.032679 0.49375,-0.3437012 1.14017,-0.7963537 0.926,-0.4373036 1.00202,-0.2609972 1.45286,-0.23085 l -0.0399,4.1592671 c -0.19882,0.139638 -0.44747,0.115348 -0.74995,-0.0859 -0.34519,-0.461411 -0.56056,-0.387529 -0.83829,-0.570798 -0.282,0.06644 -0.55771,0.143529 -0.72998,0.395332 z"
         id="path23"
         sodipodi:nodetypes="cccccccc"
         inkscape:label="neck" /><path
         style="fill:#79564b;fill-opacity:1;stroke:#000000;stroke-width:0.100012;stroke-dasharray:none;stroke-opacity:1"
         d="m 128.73765,1.4717864 c 0.52931,0.8527635 10.37534,1.7556565 12.00282,4.2956469 2.0484,2.7154657 3.04992,6.4091697 6.3902,7.8234197 1.42534,0.158518 2.8382,0.239421 4.16633,-0.207004 l 1.83172,-1.3012 c 3.59227,0.389605 3.25631,-0.698462 4.208,-1.302153 L 157.03546,7.8901021 C 156.6454,7.3173112 156.38431,6.6798514 154.79558,6.7081119 154.04944,4.899889 153.05915,3.2293821 151.50651,1.876112 148.34177,0.47276468 144.5758,1.7064992 141.18691,1.666128 141.18764,1.9306747 128.38313,0.90064714 128.73765,1.4717864 Z"
         id="path24"
         sodipodi:nodetypes="scccccccccs"
         inkscape:label="body"
         inkscape:transform-center-x="5.871804"
         inkscape:transform-center-y="0.43801924" /><g
         id="g29"
         style="fill:#79564b;fill-opacity:1"
         inkscape:label="head"
         transform="rotate(6.0268447,137.39973,1222.9705)"><path
           style="fill:#79564b;fill-opacity:1;stroke:#000000;stroke-width:0.1;stroke-opacity:1"
           d="m 31.094755,13.432418 c 0.08965,2.693789 0.739973,3.064791 1.420739,3.30967 1.230129,0.55243 2.195473,0.409798 3.083641,0.06458 0.597728,-0.569163 1.172811,-0.889216 1.727489,-0.984829 1.166251,0.739274 1.472914,0.872987 1.808209,0.887961 1.065303,-0.173732 1.104653,-0.779444 1.404591,-1.275434 0.322387,-0.242476 0.468248,-0.590867 0.64579,-0.92025 0.07417,-0.101719 0.415625,-0.07871 0.08072,-0.371329 0.05856,-1.066289 -0.286944,-1.459127 -0.678079,-1.77592 -0.335076,-0.24245 -0.714621,-0.381138 -1.178565,-0.322895 -0.724026,0.314031 -1.264432,0.370994 -1.775921,0.387473 -0.598585,-0.343654 -1.182654,-0.759882 -1.759775,-1.210854 -0.621406,-0.797597 -1.353655,-1.171977 -2.211829,-1.065553 -1.091797,0.189092 -2.078942,0.494465 -2.405565,1.53375 z"
           id="path25"
           sodipodi:nodetypes="ccccccccccccccc" /><path
           style="fill:#79564b;fill-opacity:1;stroke:#000000;stroke-width:0.1;stroke-opacity:1"
           d="m 34.065494,11.039321 c -0.553502,0.216626 -1.166655,0.338511 -1.221517,1.347094 0.142995,1.096327 0.882332,1.265013 1.552582,1.541166 3.032467,0.506314 5.955258,1.067428 6.940959,0.502306"
           id="path26"
           sodipodi:nodetypes="cccc" /><path
           style="fill:#c5bb8c;fill-opacity:1;stroke:#000000;stroke-width:0.1;stroke-opacity:1"
           d="m 36.371536,12.306502 c 0.08637,0.344896 0.337614,0.520469 0.821954,0.456642 -0.112753,-0.323819 -0.346579,-0.608478 -0.821954,-0.456642 z"
           id="path27"
           sodipodi:nodetypes="ccc" /><path
           style="fill:#79564b;fill-opacity:1;stroke:#000000;stroke-width:0.1;stroke-opacity:1"
           d="m 37.044091,12.479879 -0.05853,0.14732"
           id="path28" /><path
           style="fill:#c2c1ac;fill-opacity:1;stroke:#000000;stroke-width:0.05;stroke-dasharray:none;stroke-opacity:1"
           d="m 34.69503,13.993447 c 0.004,0.02825 -0.05247,0.326931 -0.05247,0.326931 l 0.217953,-0.238135 0.01212,0.298678 0.230063,-0.246207 v 0.330967 l 0.314822,-0.286569 -0.108979,0.460125 0.375367,-0.423799 c 0,0 -0.141266,0.480305 -0.108976,0.456088 0.03229,-0.02422 0.387471,-0.407654 0.387471,-0.407654 l -0.125121,0.476269 0.387474,-0.439944 -0.09283,0.500487 0.351147,-0.492414 -0.125121,0.58121 0.351147,-0.536812 c 0,0 -0.108977,0.532776 -0.08072,0.52874 0.02825,-0.004 0.399582,-0.480306 0.399582,-0.480306 l -0.125122,0.544885 c 0,0 0.383437,-0.504523 0.375365,-0.47627 -0.0081,0.02825 -0.100904,0.516631 -0.100904,0.516631 l 0.395544,-0.456088 -0.117049,0.49645 0.375367,-0.460125 -0.185666,0.548921 0.407654,-0.516631 -0.104939,0.504523 0.363257,-0.468197 c 0,0 -0.08476,0.460125 -0.08073,0.476269 0.004,0.01614 0.330968,-0.456089 0.330968,-0.456089 l -0.0888,0.516632 0.351147,-0.47627 -0.145301,0.508559 0.375364,-0.484342 c 0,0 -0.169519,0.609464 -0.153374,0.569102 0.01614,-0.04036 0.34711,-0.556993 0.34711,-0.556993 0,0 -0.117049,0.52874 -0.113012,0.544885 0.004,0.01614 0.435907,-0.589283 0.435907,-0.565066 0,0.02422 -0.125122,0.637717 -0.125122,0.637717 l 0.391512,-0.6135 -0.125124,0.637717 0.423802,-0.641753 -0.117052,0.69826 c 0,0 0.359222,-0.754766 0.359222,-0.714405 0,0.04036 -0.07265,0.730549 -0.07265,0.730549 l 0.415727,-0.762838 -0.07669,0.714404 0.435906,-0.819345 c -1.231258,0.274857 -3.835934,-0.169695 -6.385246,-0.585247 z"
           id="path29"
           sodipodi:nodetypes="cccccccccscccccccccccccccccccccccccsccscccccsccccc" /></g><g
         id="g12"
         style="fill:#79564b;fill-opacity:1"
         transform="translate(37.741587,-11.010448)"
         inkscape:label="leg"
         inkscape:transform-center-x="-0.67490868"
         inkscape:transform-center-y="5.2280305"><path
           style="fill:#79564b;fill-opacity:1;stroke:#000000;stroke-width:0.100012;stroke-dasharray:none;stroke-opacity:1"
           d="m 106.90365,16.748673 c -0.87459,2.226676 -0.0567,3.600644 1.56784,4.568171 1.56171,1.600068 2.37736,1.628597 3.34524,1.977767 l 2.24119,-0.505248 c 0.62688,-2.367712 0.77766,-4.386343 -0.30259,-5.502363 -1.2318,-4.256869 -2.78451,-3.779657 -4.33614,-3.318161 -0.92054,0.733471 -1.82846,1.496631 -2.51554,2.779834 z"
           id="path30"
           sodipodi:nodetypes="ccccccc"
           inkscape:transform-center-x="-0.1643158"
           inkscape:transform-center-y="1.9207801" /><g
           id="g33"
           style="fill:#79564b;fill-opacity:1"
           transform="rotate(-20.063842,79.835239,-239.87081)"><path
             style="fill:#79564b;fill-opacity:1;stroke:#000000;stroke-width:0.100012;stroke-dasharray:none;stroke-opacity:1"
             d="m 19.725312,17.756449 c -0.331158,0.449698 -0.783453,0.788488 -0.340859,1.879157 0.06498,0.485688 0.03163,0.948686 -0.182657,1.369927 -0.630949,0.215354 -1.050745,0.563196 -0.593634,1.461254 0.392656,1.392809 0.0069,2.231712 -0.41628,3.189807 -0.04286,0.355577 0.677477,0.324671 1.055579,0.303504 0.286001,-0.02643 0.580033,-0.101052 0.844787,0 0.968201,0.209736 1.397508,0.166658 1.758072,0.09133 0.320857,0.182815 1.176569,0.211117 2.465867,0.11416 0.539109,-0.198605 0.347973,-0.459803 0.151156,-0.721488 l 0.314822,0.363257 c 0.816216,-0.04081 0.357509,-0.326794 0.104941,-0.573138 -0.733645,-1.15487 -1.25062,-1.246083 -1.751704,-1.259289 -0.297143,0.02082 -0.527513,-0.02295 -1.089769,0.242171 -0.449187,0.258754 -1.022797,0.206449 -1.687125,-0.07265 -0.623956,-1.119353 -1.010634,-2.088429 -0.355184,-2.397492 0.02837,-1.00966 0.437227,-1.829078 1.283507,-2.429783 l 0.113013,-0.379401 c 0.442885,-0.03608 0.591351,-0.36657 0.694223,-0.742658 z"
             id="path31"
             sodipodi:nodetypes="cccccccccccccccccccc" /><path
             style="fill:#c8bfb0;fill-opacity:1;stroke:#000000;stroke-width:0.100012;stroke-dasharray:none;stroke-opacity:1"
             d="m 23.305867,24.658669 c 0.118036,0.19811 0.22445,0.402861 0.445226,0.542262 0.218235,-0.166196 0.385536,-0.171612 0.513722,-0.142701 -0.182726,-0.466134 -0.601781,-0.384066 -0.958948,-0.399561 z"
             id="path32"
             sodipodi:nodetypes="cccc" /><path
             style="fill:#c8bfb0;fill-opacity:1;stroke:#000000;stroke-width:0.100012;stroke-dasharray:none;stroke-opacity:1"
             d="m 23.956581,24.339019 c -0.0056,0.06468 0.365178,0.595553 0.43381,0.587927 0.195976,-0.262378 0.397659,-0.124497 0.593635,-0.02284 -0.330488,-0.621709 -0.682172,-0.564347 -1.027445,-0.565087 z"
             id="path33"
             sodipodi:nodetypes="cccc" /></g></g></g><g
       id="g229"
       transform="translate(0.15877056)"
       inkscape:groupmode="layer"
       inkscape:label="3"><path
         style="fill:#79564b;fill-opacity:1;stroke:#000000;stroke-width:0.1;stroke-opacity:1"
         d="m 114.6552,3.6575005 c 0.0742,0.032679 0.49375,-0.3437012 1.14017,-0.7963537 0.926,-0.4373036 1.00202,-0.2609972 1.45286,-0.23085 l -0.0399,4.1592667 c -0.19882,0.1396383 -0.44747,0.1153482 -0.74995,-0.085904 -0.34519,-0.4614105 -0.56056,-0.3875282 -0.83829,-0.5707973 -0.282,0.066437 -0.55771,0.1435286 -0.72998,0.3953321 z"
         id="path13"
         sodipodi:nodetypes="cccccccc"
         inkscape:label="neck"
         transform="translate(-0.15877056)" /><path
         style="fill:#79564b;fill-opacity:1;stroke:#000000;stroke-width:0.100012;stroke-dasharray:none;stroke-opacity:1"
         d="m 87.211094,13.19864 c 0.905082,0.433836 9.689373,-4.1044023 12.428079,-2.839595 3.187897,1.186163 6.019967,3.760238 9.596357,3.154419 1.28661,-0.633529 2.52093,-1.325757 3.40002,-2.416817 l 0.84348,-2.082513 c 3.2373,-1.6050267 2.36854,-2.3412451 2.84573,-3.3622535 L 114.51522,3.3779631 C 113.87819,3.1051427 113.31505,2.7084073 111.99126,3.5872923 110.38921,2.464875 108.6555,1.5899346 106.61857,1.285029 103.196,1.8055569 100.686,4.8722389 97.808081,6.6621377 97.951077,6.884712 86.604917,12.908079 87.211094,13.19864 Z"
         id="path12"
         sodipodi:nodetypes="scccccccccs"
         inkscape:label="body"
         inkscape:transform-center-x="5.4396478"
         inkscape:transform-center-y="0.42277286"
         transform="translate(-0.15877056)" /><g
         id="g18"
         style="fill:#79564b;fill-opacity:1"
         inkscape:label="head"
         transform="rotate(-7.2079226,3.3316996,-667.36247)"><path
           style="fill:#79564b;fill-opacity:1;stroke:#000000;stroke-width:0.1;stroke-opacity:1"
           d="m 31.094755,13.432418 c 0.08965,2.693789 0.739973,3.064791 1.420739,3.30967 1.230129,0.55243 2.195473,0.409798 3.083641,0.06458 0.597728,-0.569163 1.172811,-0.889216 1.727489,-0.984829 1.166251,0.739274 1.472914,0.872987 1.808209,0.887961 1.065303,-0.173732 1.104653,-0.779444 1.404591,-1.275434 0.322387,-0.242476 0.468248,-0.590867 0.64579,-0.92025 0.07417,-0.101719 0.415625,-0.07871 0.08072,-0.371329 0.05856,-1.066289 -0.286944,-1.459127 -0.678079,-1.77592 -0.335076,-0.24245 -0.714621,-0.381138 -1.178565,-0.322895 -0.724026,0.314031 -1.264432,0.370994 -1.775921,0.387473 -0.598585,-0.343654 -1.182654,-0.759882 -1.759775,-1.210854 -0.621406,-0.797597 -1.353655,-1.171977 -2.211829,-1.065553 -1.091797,0.189092 -2.078942,0.494465 -2.405565,1.53375 z"
           id="path14"
           sodipodi:nodetypes="ccccccccccccccc" /><path
           style="fill:#79564b;fill-opacity:1;stroke:#000000;stroke-width:0.1;stroke-opacity:1"
           d="m 34.065494,11.039321 c -0.553502,0.216626 -1.166655,0.338511 -1.221517,1.347094 0.142995,1.096327 0.882332,1.265013 1.552582,1.541166 3.032467,0.506314 5.955258,1.067428 6.940959,0.502306"
           id="path15"
           sodipodi:nodetypes="cccc" /><path
           style="fill:#c5bb8c;fill-opacity:1;stroke:#000000;stroke-width:0.1;stroke-opacity:1"
           d="m 36.371536,12.306502 c 0.08637,0.344896 0.337614,0.520469 0.821954,0.456642 -0.112753,-0.323819 -0.346579,-0.608478 -0.821954,-0.456642 z"
           id="path16"
           sodipodi:nodetypes="ccc" /><path
           style="fill:#79564b;fill-opacity:1;stroke:#000000;stroke-width:0.1;stroke-opacity:1"
           d="m 37.044091,12.479879 -0.05853,0.14732"
           id="path17" /><path
           style="fill:#c2c1ac;fill-opacity:1;stroke:#000000;stroke-width:0.05;stroke-dasharray:none;stroke-opacity:1"
           d="m 34.69503,13.993447 c 0.004,0.02825 -0.05247,0.326931 -0.05247,0.326931 l 0.217953,-0.238135 0.01212,0.298678 0.230063,-0.246207 v 0.330967 l 0.314822,-0.286569 -0.108979,0.460125 0.375367,-0.423799 c 0,0 -0.141266,0.480305 -0.108976,0.456088 0.03229,-0.02422 0.387471,-0.407654 0.387471,-0.407654 l -0.125121,0.476269 0.387474,-0.439944 -0.09283,0.500487 0.351147,-0.492414 -0.125121,0.58121 0.351147,-0.536812 c 0,0 -0.108977,0.532776 -0.08072,0.52874 0.02825,-0.004 0.399582,-0.480306 0.399582,-0.480306 l -0.125122,0.544885 c 0,0 0.383437,-0.504523 0.375365,-0.47627 -0.0081,0.02825 -0.100904,0.516631 -0.100904,0.516631 l 0.395544,-0.456088 -0.117049,0.49645 0.375367,-0.460125 -0.185666,0.548921 0.407654,-0.516631 -0.104939,0.504523 0.363257,-0.468197 c 0,0 -0.08476,0.460125 -0.08073,0.476269 0.004,0.01614 0.330968,-0.456089 0.330968,-0.456089 l -0.0888,0.516632 0.351147,-0.47627 -0.145301,0.508559 0.375364,-0.484342 c 0,0 -0.169519,0.609464 -0.153374,0.569102 0.01614,-0.04036 0.34711,-0.556993 0.34711,-0.556993 0,0 -0.117049,0.52874 -0.113012,0.544885 0.004,0.01614 0.435907,-0.589283 0.435907,-0.565066 0,0.02422 -0.125122,0.637717 -0.125122,0.637717 l 0.391512,-0.6135 -0.125124,0.637717 0.423802,-0.641753 -0.117052,0.69826 c 0,0 0.359222,-0.754766 0.359222,-0.714405 0,0.04036 -0.07265,0.730549 -0.07265,0.730549 l 0.415727,-0.762838 -0.07669,0.714404 0.435906,-0.819345 c -1.231258,0.274857 -3.835934,-0.169695 -6.385246,-0.585247 z"
           id="path18"
           sodipodi:nodetypes="cccccccccscccccccccccccccccccccccccsccscccccsccccc" /></g><g
         id="g23"
         style="fill:#79564b;fill-opacity:1"
         transform="rotate(-35.494317,49.020521,-114.66508)"
         inkscape:label="leg"
         inkscape:transform-center-x="-4.5145511"
         inkscape:transform-center-y="3.6701001"><path
           style="fill:#79564b;fill-opacity:1;stroke:#000000;stroke-width:0.100012;stroke-dasharray:none;stroke-opacity:1"
           d="m 22.373343,16.969296 c -0.65332,2.301338 0.294605,3.58902 2.005759,4.393546 1.710274,1.440181 2.524825,1.389049 3.522132,1.64219 l 2.181252,-0.721352 c 0.393043,-2.417551 0.346295,-4.441266 -0.837612,-5.446647 -1.640971,-4.11649 -3.139752,-3.490166 -4.639004,-2.879587 -0.844635,0.819726 -1.673828,1.667771 -2.232527,3.01185 z"
           id="path19"
           sodipodi:nodetypes="ccccccc" /><g
           id="g22"
           style="fill:#79564b;fill-opacity:1"
           transform="rotate(48.93498,21.536436,28.891207)"><path
             style="fill:#79564b;fill-opacity:1;stroke:#000000;stroke-width:0.100012;stroke-dasharray:none;stroke-opacity:1"
             d="m 19.725312,17.756449 c -0.331158,0.449698 -0.783453,0.788488 -0.340859,1.879157 0.06498,0.485688 0.03163,0.948686 -0.182657,1.369927 -0.630949,0.215354 -1.050745,0.563196 -0.593634,1.461254 0.392656,1.392809 0.0069,2.231712 -0.41628,3.189807 -0.04286,0.355577 0.677477,0.324671 1.055579,0.303504 0.286001,-0.02643 0.580033,-0.101052 0.844787,0 0.968201,0.209736 1.397508,0.166658 1.758072,0.09133 0.320857,0.182815 1.176569,0.211117 2.465867,0.11416 0.539109,-0.198605 0.347973,-0.459803 0.151156,-0.721488 l 0.314822,0.363257 c 0.816216,-0.04081 0.357509,-0.326794 0.104941,-0.573138 -0.733645,-1.15487 -1.25062,-1.246083 -1.751704,-1.259289 -0.297143,0.02082 -0.527513,-0.02295 -1.089769,0.242171 -0.449187,0.258754 -1.022797,0.206449 -1.687125,-0.07265 -0.623956,-1.119353 -1.010634,-2.088429 -0.355184,-2.397492 0.02837,-1.00966 0.437227,-1.829078 1.283507,-2.429783 l 0.113013,-0.379401 c 0.442885,-0.03608 0.591351,-0.36657 0.694223,-0.742658 z"
             id="path20"
             sodipodi:nodetypes="cccccccccccccccccccc" /><path
             style="fill:#c8bfb0;fill-opacity:1;stroke:#000000;stroke-width:0.100012;stroke-dasharray:none;stroke-opacity:1"
             d="m 23.305867,24.658669 c 0.118036,0.19811 0.22445,0.402861 0.445226,0.542262 0.218235,-0.166196 0.385536,-0.171612 0.513722,-0.142701 -0.182726,-0.466134 -0.601781,-0.384066 -0.958948,-0.399561 z"
             id="path21"
             sodipodi:nodetypes="cccc" /><path
             style="fill:#c8bfb0;fill-opacity:1;stroke:#000000;stroke-width:0.100012;stroke-dasharray:none;stroke-opacity:1"
             d="m 23.956581,24.339019 c -0.0056,0.06468 0.365178,0.595553 0.43381,0.587927 0.195976,-0.262378 0.397659,-0.124497 0.593635,-0.02284 -0.330488,-0.621709 -0.682172,-0.564347 -1.027445,-0.565087 z"
             id="path22"
             sodipodi:nodetypes="cccc" /></g></g></g><g
       id="g234"
       transform="translate(0.15877056)"
       inkscape:groupmode="layer"
       inkscape:label="2"><path
         style="fill:#79564b;fill-opacity:1;stroke:#000000;stroke-width:0.100012;stroke-dasharray:none;stroke-opacity:1"
         d="m 43.248002,7.1396538 c 0.740441,0.6775954 10.463156,-1.119117 12.717571,0.8853434 2.70712,2.0594188 4.671314,5.3439868 8.269747,5.8010058 1.415023,-0.233324 2.797024,-0.537984 3.95466,-1.327334 l 1.41099,-1.748549 c 3.563581,-0.597582 2.945573,-1.5540415 3.698266,-2.392863 L 72.22663,5.6563957 C 71.69605,5.210612 71.272109,4.6676559 69.750386,5.1250219 68.542521,3.5863587 67.136922,2.2463788 65.275861,1.3640462 61.849375,0.86999216 58.558107,3.0773074 55.284878,3.956008 55.357207,4.2104793 42.752093,6.6858356 43.248002,7.1396538 Z"
         id="path1"
         sodipodi:nodetypes="scccccccccs"
         inkscape:label="body"
         inkscape:transform-center-x="5.8986807"
         inkscape:transform-center-y="0.53745113" /><path
         style="fill:#79564b;fill-opacity:1;stroke:#000000;stroke-width:0.1;stroke-opacity:1"
         d="m 72.064105,5.8615441 c 0.08077,0.00611 0.35111,-0.4885143 0.809924,-1.1305717 0.727529,-0.720693 0.857923,-0.5797622 1.293069,-0.7014581 l 1.347379,3.9351791 C 75.373526,8.1625701 75.130963,8.2224567 74.778734,8.1334184 74.299599,7.813284 74.121127,7.9546645 73.798219,7.874337 73.554427,8.0308814 73.320134,8.1953846 73.241532,8.4901809 Z"
         id="path2"
         sodipodi:nodetypes="cccccccc"
         inkscape:label="neck" /><g
         id="g7"
         style="fill:#79564b;fill-opacity:1"
         inkscape:label="head"
         transform="rotate(-15.242592,24.358836,-151.50593)"><path
           style="fill:#79564b;fill-opacity:1;stroke:#000000;stroke-width:0.1;stroke-opacity:1"
           d="m 31.094755,13.432418 c 0.08965,2.693789 0.739973,3.064791 1.420739,3.30967 1.230129,0.55243 2.195473,0.409798 3.083641,0.06458 0.597728,-0.569163 1.172811,-0.889216 1.727489,-0.984829 1.166251,0.739274 1.472914,0.872987 1.808209,0.887961 1.065303,-0.173732 1.104653,-0.779444 1.404591,-1.275434 0.322387,-0.242476 0.468248,-0.590867 0.64579,-0.92025 0.07417,-0.101719 0.415625,-0.07871 0.08072,-0.371329 0.05856,-1.066289 -0.286944,-1.459127 -0.678079,-1.77592 -0.335076,-0.24245 -0.714621,-0.381138 -1.178565,-0.322895 -0.724026,0.314031 -1.264432,0.370994 -1.775921,0.387473 -0.598585,-0.343654 -1.182654,-0.759882 -1.759775,-1.210854 -0.621406,-0.797597 -1.353655,-1.171977 -2.211829,-1.065553 -1.091797,0.189092 -2.078942,0.494465 -2.405565,1.53375 z"
           id="path3"
           sodipodi:nodetypes="ccccccccccccccc" /><path
           style="fill:#79564b;fill-opacity:1;stroke:#000000;stroke-width:0.1;stroke-opacity:1"
           d="m 34.065494,11.039321 c -0.553502,0.216626 -1.166655,0.338511 -1.221517,1.347094 0.142995,1.096327 0.882332,1.265013 1.552582,1.541166 3.032467,0.506314 5.955258,1.067428 6.940959,0.502306"
           id="path4"
           sodipodi:nodetypes="cccc" /><path
           style="fill:#c5bb8c;fill-opacity:1;stroke:#000000;stroke-width:0.1;stroke-opacity:1"
           d="m 36.371536,12.306502 c 0.08637,0.344896 0.337614,0.520469 0.821954,0.456642 -0.112753,-0.323819 -0.346579,-0.608478 -0.821954,-0.456642 z"
           id="path5"
           sodipodi:nodetypes="ccc" /><path
           style="fill:#79564b;fill-opacity:1;stroke:#000000;stroke-width:0.1;stroke-opacity:1"
           d="m 37.044091,12.479879 -0.05853,0.14732"
           id="path6" /><path
           style="fill:#c2c1ac;fill-opacity:1;stroke:#000000;stroke-width:0.05;stroke-dasharray:none;stroke-opacity:1"
           d="m 34.69503,13.993447 c 0.004,0.02825 -0.05247,0.326931 -0.05247,0.326931 l 0.217953,-0.238135 0.01212,0.298678 0.230063,-0.246207 v 0.330967 l 0.314822,-0.286569 -0.108979,0.460125 0.375367,-0.423799 c 0,0 -0.141266,0.480305 -0.108976,0.456088 0.03229,-0.02422 0.387471,-0.407654 0.387471,-0.407654 l -0.125121,0.476269 0.387474,-0.439944 -0.09283,0.500487 0.351147,-0.492414 -0.125121,0.58121 0.351147,-0.536812 c 0,0 -0.108977,0.532776 -0.08072,0.52874 0.02825,-0.004 0.399582,-0.480306 0.399582,-0.480306 l -0.125122,0.544885 c 0,0 0.383437,-0.504523 0.375365,-0.47627 -0.0081,0.02825 -0.100904,0.516631 -0.100904,0.516631 l 0.395544,-0.456088 -0.117049,0.49645 0.375367,-0.460125 -0.185666,0.548921 0.407654,-0.516631 -0.104939,0.504523 0.363257,-0.468197 c 0,0 -0.08476,0.460125 -0.08073,0.476269 0.004,0.01614 0.330968,-0.456089 0.330968,-0.456089 l -0.0888,0.516632 0.351147,-0.47627 -0.145301,0.508559 0.375364,-0.484342 c 0,0 -0.169519,0.609464 -0.153374,0.569102 0.01614,-0.04036 0.34711,-0.556993 0.34711,-0.556993 0,0 -0.117049,0.52874 -0.113012,0.544885 0.004,0.01614 0.435907,-0.589283 0.435907,-0.565066 0,0.02422 -0.125122,0.637717 -0.125122,0.637717 l 0.391512,-0.6135 -0.125124,0.637717 0.423802,-0.641753 -0.117052,0.69826 c 0,0 0.359222,-0.754766 0.359222,-0.714405 0,0.04036 -0.07265,0.730549 -0.07265,0.730549 l 0.415727,-0.762838 -0.07669,0.714404 0.435906,-0.819345 c -1.231258,0.274857 -3.835934,-0.169695 -6.385246,-0.585247 z"
           id="path7"
           sodipodi:nodetypes="cccccccccscccccccccccccccccccccccccsccscccccsccccc" /></g><g
         id="g38"
         style="fill:#79564b;fill-opacity:1"
         transform="translate(37.741587,-11.010448)"
         inkscape:label="leg"
         inkscape:transform-center-x="-0.67490868"
         inkscape:transform-center-y="5.2280305"><path
           style="fill:#79564b;fill-opacity:1;stroke:#000000;stroke-width:0.100012;stroke-dasharray:none;stroke-opacity:1"
           d="m 22.373343,16.969296 c -0.65332,2.301338 0.294605,3.58902 2.005759,4.393546 1.710274,1.440181 2.524825,1.389049 3.522132,1.64219 l 2.181252,-0.721352 c 0.393043,-2.417551 0.346295,-4.441266 -0.837612,-5.446647 -1.640971,-4.11649 -3.139752,-3.490166 -4.639004,-2.879587 -0.844635,0.819726 -1.673828,1.667771 -2.232527,3.01185 z"
           id="path34"
           sodipodi:nodetypes="ccccccc" /><g
           id="g37"
           style="fill:#79564b;fill-opacity:1"
           transform="rotate(16.175167,11.886053,48.235416)"><path
             style="fill:#79564b;fill-opacity:1;stroke:#000000;stroke-width:0.100012;stroke-dasharray:none;stroke-opacity:1"
             d="m 19.725312,17.756449 c -0.331158,0.449698 -0.783453,0.788488 -0.340859,1.879157 0.06498,0.485688 0.03163,0.948686 -0.182657,1.369927 -0.630949,0.215354 -1.050745,0.563196 -0.593634,1.461254 0.392656,1.392809 0.0069,2.231712 -0.41628,3.189807 -0.04286,0.355577 0.677477,0.324671 1.055579,0.303504 0.286001,-0.02643 0.580033,-0.101052 0.844787,0 0.968201,0.209736 1.397508,0.166658 1.758072,0.09133 0.320857,0.182815 1.176569,0.211117 2.465867,0.11416 0.539109,-0.198605 0.347973,-0.459803 0.151156,-0.721488 l 0.314822,0.363257 c 0.816216,-0.04081 0.357509,-0.326794 0.104941,-0.573138 -0.733645,-1.15487 -1.25062,-1.246083 -1.751704,-1.259289 -0.297143,0.02082 -0.527513,-0.02295 -1.089769,0.242171 -0.449187,0.258754 -1.022797,0.206449 -1.687125,-0.07265 -0.623956,-1.119353 -1.010634,-2.088429 -0.355184,-2.397492 0.02837,-1.00966 0.437227,-1.829078 1.283507,-2.429783 l 0.113013,-0.379401 c 0.442885,-0.03608 0.591351,-0.36657 0.694223,-0.742658 z"
             id="path35"
             sodipodi:nodetypes="cccccccccccccccccccc" /><path
             style="fill:#c8bfb0;fill-opacity:1;stroke:#000000;stroke-width:0.100012;stroke-dasharray:none;stroke-opacity:1"
             d="m 23.305867,24.658669 c 0.118036,0.19811 0.22445,0.402861 0.445226,0.542262 0.218235,-0.166196 0.385536,-0.171612 0.513722,-0.142701 -0.182726,-0.466134 -0.601781,-0.384066 -0.958948,-0.399561 z"
             id="path36"
             sodipodi:nodetypes="cccc" /><path
             style="fill:#c8bfb0;fill-opacity:1;stroke:#000000;stroke-width:0.100012;stroke-dasharray:none;stroke-opacity:1"
             d="m 23.956581,24.339019 c -0.0056,0.06468 0.365178,0.595553 0.43381,0.587927 0.195976,-0.262378 0.397659,-0.124497 0.593635,-0.02284 -0.330488,-0.621709 -0.682172,-0.564347 -1.027445,-0.565087 z"
             id="path37"
             sodipodi:nodetypes="cccc" /></g></g></g><g
       id="g235"
       transform="translate(0.15877056)"
       inkscape:groupmode="layer"
       inkscape:label="1"><path
         style="fill:#79564b;fill-opacity:1;stroke:#000000;stroke-width:0.100012;stroke-dasharray:none;stroke-opacity:1"
         d="m 1.1385049,2.2428481 c 0.5613712,0.8320166 10.4346091,1.3597791 12.1575211,3.8360306 2.150197,2.635595 3.291463,6.2885323 6.683117,7.5747173 1.43034,0.104193 2.845264,0.131305 4.155442,-0.365313 l 1.780904,-1.369926 c 3.604491,0.252696 3.227396,-0.821803 4.155442,-1.461255 L 29.659953,7.5802577 C 29.248388,7.0227167 28.963235,6.3956477 27.376742,6.4843167 26.562364,4.7057747 25.509258,3.0741429 23.906264,1.7809036 20.690449,0.49893871 16.974119,1.8750116 13.586155,1.9635605 13.596944,2.2278914 0.76252761,1.6856067 1.1385049,2.2428481 Z"
         id="path58"
         sodipodi:nodetypes="scccccccccs"
         inkscape:label="body" /><path
         style="fill:#79564b;fill-opacity:1;stroke:#000000;stroke-width:0.1;stroke-opacity:1"
         d="m 29.614289,7.4660967 c 0.07577,0.02865 0.47465,-0.369638 1.09594,-0.856204 0.901274,-0.486211 0.986621,-0.314222 1.438424,-0.308233 l 0.182655,4.1554423 c -0.191043,0.150083 -0.440649,0.139117 -0.753459,-0.04566 -0.369378,-0.4422863 -0.580482,-0.356989 -0.867619,-0.5251383 -0.27805,0.08142 -0.549231,0.1731553 -0.707795,0.4338093 z"
         id="path59"
         sodipodi:nodetypes="cccccccc"
         inkscape:label="neck" /><g
         id="g64"
         style="fill:#79564b;fill-opacity:1"
         inkscape:label="head"
         transform="translate(0.89150675,-5.4797043)"><path
           style="fill:#79564b;fill-opacity:1;stroke:#000000;stroke-width:0.1;stroke-opacity:1"
           d="m 31.094755,13.432418 c 0.08965,2.693789 0.739973,3.064791 1.420739,3.30967 1.230129,0.55243 2.195473,0.409798 3.083641,0.06458 0.597728,-0.569163 1.172811,-0.889216 1.727489,-0.984829 1.166251,0.739274 1.472914,0.872987 1.808209,0.887961 1.065303,-0.173732 1.104653,-0.779444 1.404591,-1.275434 0.322387,-0.242476 0.468248,-0.590867 0.64579,-0.92025 0.07417,-0.101719 0.415625,-0.07871 0.08072,-0.371329 0.05856,-1.066289 -0.286944,-1.459127 -0.678079,-1.77592 -0.335076,-0.24245 -0.714621,-0.381138 -1.178565,-0.322895 -0.724026,0.314031 -1.264432,0.370994 -1.775921,0.387473 -0.598585,-0.343654 -1.182654,-0.759882 -1.759775,-1.210854 -0.621406,-0.797597 -1.353655,-1.171977 -2.211829,-1.065553 -1.091797,0.189092 -2.078942,0.494465 -2.405565,1.53375 z"
           id="path60"
           sodipodi:nodetypes="ccccccccccccccc" /><path
           style="fill:#79564b;fill-opacity:1;stroke:#000000;stroke-width:0.1;stroke-opacity:1"
           d="m 34.065494,11.039321 c -0.553502,0.216626 -1.166655,0.338511 -1.221517,1.347094 0.142995,1.096327 0.882332,1.265013 1.552582,1.541166 3.032467,0.506314 5.955258,1.067428 6.940959,0.502306"
           id="path61"
           sodipodi:nodetypes="cccc" /><path
           style="fill:#c5bb8c;fill-opacity:1;stroke:#000000;stroke-width:0.1;stroke-opacity:1"
           d="m 36.371536,12.306502 c 0.08637,0.344896 0.337614,0.520469 0.821954,0.456642 -0.112753,-0.323819 -0.346579,-0.608478 -0.821954,-0.456642 z"
           id="path62"
           sodipodi:nodetypes="ccc" /><path
           style="fill:#79564b;fill-opacity:1;stroke:#000000;stroke-width:0.1;stroke-opacity:1"
           d="m 37.044091,12.479879 -0.05853,0.14732"
           id="path63" /><path
           style="fill:#c2c1ac;fill-opacity:1;stroke:#000000;stroke-width:0.05;stroke-dasharray:none;stroke-opacity:1"
           d="m 34.69503,13.993447 c 0.004,0.02825 -0.05247,0.326931 -0.05247,0.326931 l 0.217953,-0.238135 0.01212,0.298678 0.230063,-0.246207 v 0.330967 l 0.314822,-0.286569 -0.108979,0.460125 0.375367,-0.423799 c 0,0 -0.141266,0.480305 -0.108976,0.456088 0.03229,-0.02422 0.387471,-0.407654 0.387471,-0.407654 l -0.125121,0.476269 0.387474,-0.439944 -0.09283,0.500487 0.351147,-0.492414 -0.125121,0.58121 0.351147,-0.536812 c 0,0 -0.108977,0.532776 -0.08072,0.52874 0.02825,-0.004 0.399582,-0.480306 0.399582,-0.480306 l -0.125122,0.544885 c 0,0 0.383437,-0.504523 0.375365,-0.47627 -0.0081,0.02825 -0.100904,0.516631 -0.100904,0.516631 l 0.395544,-0.456088 -0.117049,0.49645 0.375367,-0.460125 -0.185666,0.548921 0.407654,-0.516631 -0.104939,0.504523 0.363257,-0.468197 c 0,0 -0.08476,0.460125 -0.08073,0.476269 0.004,0.01614 0.330968,-0.456089 0.330968,-0.456089 l -0.0888,0.516632 0.351147,-0.47627 -0.145301,0.508559 0.375364,-0.484342 c 0,0 -0.169519,0.609464 -0.153374,0.569102 0.01614,-0.04036 0.34711,-0.556993 0.34711,-0.556993 0,0 -0.117049,0.52874 -0.113012,0.544885 0.004,0.01614 0.435907,-0.589283 0.435907,-0.565066 0,0.02422 -0.125122,0.637717 -0.125122,0.637717 l 0.391512,-0.6135 -0.125124,0.637717 0.423802,-0.641753 -0.117052,0.69826 c 0,0 0.359222,-0.754766 0.359222,-0.714405 0,0.04036 -0.07265,0.730549 -0.07265,0.730549 l 0.415727,-0.762838 -0.07669,0.714404 0.435906,-0.819345 c -1.231258,0.274857 -3.835934,-0.169695 -6.385246,-0.585247 z"
           id="path64"
           sodipodi:nodetypes="cccccccccscccccccccccccccccccccccccsccscccccsccccc" /></g><g
         id="g69"
         style="fill:#79564b;fill-opacity:1"
         transform="translate(-4.9208494,-11.010448)"
         inkscape:label="leg"
         inkscape:transform-center-x="-0.67490868"
         inkscape:transform-center-y="5.2280305"><path
           style="fill:#79564b;fill-opacity:1;stroke:#000000;stroke-width:0.100012;stroke-dasharray:none;stroke-opacity:1"
           d="M 9.9547958,11.256225 C 8.279437,12.9639 8.4951806,14.548243 9.6123142,16.073799 c 0.8120368,2.083208 1.5516508,2.428287 2.3060418,3.127998 l 2.260378,0.410977 c 1.502487,-1.934313 2.430309,-3.733411 1.872232,-5.182886 C 16.581071,10.030199 14.965363,9.8625299 13.356779,9.6808108 12.222785,9.9961146 11.08879,10.343673 9.9547958,11.256225 Z"
           id="path65"
           sodipodi:nodetypes="ccccccc"
           transform="translate(13.735092,4.0923216)" /><g
           id="g68"
           style="fill:#79564b;fill-opacity:1"
           transform="translate(5.8123544,5.530744)"><path
             style="fill:#79564b;fill-opacity:1;stroke:#000000;stroke-width:0.100012;stroke-dasharray:none;stroke-opacity:1"
             d="m 19.725312,17.756449 c -0.331158,0.449698 -0.783453,0.788488 -0.340859,1.879157 0.06498,0.485688 0.03163,0.948686 -0.182657,1.369927 -0.630949,0.215354 -1.050745,0.563196 -0.593634,1.461254 0.392656,1.392809 0.0069,2.231712 -0.41628,3.189807 -0.04286,0.355577 0.677477,0.324671 1.055579,0.303504 0.286001,-0.02643 0.580033,-0.101052 0.844787,0 0.968201,0.209736 1.397508,0.166658 1.758072,0.09133 0.320857,0.182815 1.176569,0.211117 2.465867,0.11416 0.539109,-0.198605 0.347973,-0.459803 0.151156,-0.721488 l 0.314822,0.363257 c 0.816216,-0.04081 0.357509,-0.326794 0.104941,-0.573138 -0.733645,-1.15487 -1.25062,-1.246083 -1.751704,-1.259289 -0.297143,0.02082 -0.527513,-0.02295 -1.089769,0.242171 -0.449187,0.258754 -1.022797,0.206449 -1.687125,-0.07265 -0.623956,-1.119353 -1.010634,-2.088429 -0.355184,-2.397492 0.02837,-1.00966 0.437227,-1.829078 1.283507,-2.429783 l 0.113013,-0.379401 c 0.442885,-0.03608 0.591351,-0.36657 0.694223,-0.742658 z"
             id="path66"
             sodipodi:nodetypes="cccccccccccccccccccc" /><path
             style="fill:#c8bfb0;fill-opacity:1;stroke:#000000;stroke-width:0.100012;stroke-dasharray:none;stroke-opacity:1"
             d="m 23.305867,24.658669 c 0.118036,0.19811 0.22445,0.402861 0.445226,0.542262 0.218235,-0.166196 0.385536,-0.171612 0.513722,-0.142701 -0.182726,-0.466134 -0.601781,-0.384066 -0.958948,-0.399561 z"
             id="path67"
             sodipodi:nodetypes="cccc" /><path
             style="fill:#c8bfb0;fill-opacity:1;stroke:#000000;stroke-width:0.100012;stroke-dasharray:none;stroke-opacity:1"
             d="m 23.956581,24.339019 c -0.0056,0.06468 0.365178,0.595553 0.43381,0.587927 0.195976,-0.262378 0.397659,-0.124497 0.593635,-0.02284 -0.330488,-0.621709 -0.682172,-0.564347 -1.027445,-0.565087 z"
             id="path68"
             sodipodi:nodetypes="cccc" /></g></g></g></g></svg>
