<?xml version="1.0" encoding="UTF-8" standalone="no"?>
<!-- Created with Inkscape (http://www.inkscape.org/) -->

<svg
   width="1280"
   height="80"
   viewBox="0 0 338.66663 21.166665"
   version="1.1"
   id="svg1"
   xml:space="preserve"
   inkscape:version="1.3.2 (091e20e, 2023-11-25, custom)"
   sodipodi:docname="tr_jump.svg"
   xmlns:inkscape="http://www.inkscape.org/namespaces/inkscape"
   xmlns:sodipodi="http://sodipodi.sourceforge.net/DTD/sodipodi-0.dtd"
   xmlns="http://www.w3.org/2000/svg"
   xmlns:svg="http://www.w3.org/2000/svg"><sodipodi:namedview
     id="namedview1"
     pagecolor="#ffffff"
     bordercolor="#000000"
     borderopacity="0.25"
     inkscape:showpageshadow="2"
     inkscape:pageopacity="0.0"
     inkscape:pagecheckerboard="true"
     inkscape:deskcolor="#d1d1d1"
     inkscape:document-units="px"
     labelstyle="default"
     showgrid="true"
     inkscape:zoom="1.3397168"
     inkscape:cx="619.53392"
     inkscape:cy="19.7803"
     inkscape:window-width="1920"
     inkscape:window-height="1009"
     inkscape:window-x="1912"
     inkscape:window-y="-8"
     inkscape:window-maximized="1"
     inkscape:current-layer="g230"><inkscape:grid
       id="grid1"
       units="px"
       originx="-5.1405632e-17"
       originy="0"
       spacingx="0.2645833"
       spacingy="0.26458331"
       empcolor="#0099e5"
       empopacity="0.30196078"
       color="#0099e5"
       opacity="0.14901961"
       empspacing="5"
       dotted="false"
       gridanglex="30"
       gridanglez="30"
       visible="true" /></sodipodi:namedview><defs
     id="defs1"><inkscape:path-effect
       effect="fillet_chamfer"
       id="path-effect4"
       is_visible="true"
       lpeversion="1"
       nodesatellites_param="F,0,0,1,0,0,0,1 @ F,0,0,1,0,0,0,1 @ F,0,0,1,0,0,0,1 @ F,0,0,1,0,0,0,1 @ F,0,0,1,0,0,0,1 @ F,0,0,1,0,0,0,1 @ F,0,0,1,0,0,0,1 @ F,0,0,1,0,0,0,1 @ F,0,0,1,0,0,0,1 @ F,0,0,1,0,0,0,1"
       radius="0"
       unit="px"
       method="auto"
       mode="F"
       chamfer_steps="1"
       flexible="false"
       use_knot_distance="true"
       apply_no_radius="true"
       apply_with_radius="true"
       only_selected="false"
       hide_knots="false" /></defs><g
     inkscape:label="Слой 1"
     inkscape:groupmode="layer"
     id="layer1"><g
       id="g230"
       transform="translate(0.15877056)"
       inkscape:groupmode="layer"
       inkscape:label="8"><g
         id="g157"
         style="fill:#79564b;fill-opacity:1"
         transform="rotate(-50.699575,161.72173,-292.48673)"
         inkscape:label="front leg"
         inkscape:transform-center-x="-3.2649805"
         inkscape:transform-center-y="4.3235936"><path
           style="fill:#79564b;fill-opacity:1;stroke:#000000;stroke-width:0.100012;stroke-dasharray:none;stroke-opacity:1"
           d="m 27.454256,15.867955 c -2.320797,-0.580415 -3.577943,0.40765 -4.328101,2.143327 -1.385527,1.754842 -1.30873,2.567376 -1.530292,3.57217 l 0.789786,2.157417 c 2.428744,0.316602 4.449978,0.206053 5.417521,-1.008973 4.062689,-1.769981 3.389407,-3.248263 2.731848,-4.727513 -0.845957,-0.818362 -1.719731,-1.620397 -3.080762,-2.136428 z"
           id="path153"
           sodipodi:nodetypes="ccccccc" /><g
           id="g156"
           style="fill:#79564b;fill-opacity:1"
           transform="rotate(122.58769,20.742402,21.03572)"
           inkscape:transform-center-x="3.5701859"
           inkscape:transform-center-y="1.1617748"><path
             style="fill:#79564b;fill-opacity:1;stroke:#000000;stroke-width:0.100012;stroke-dasharray:none;stroke-opacity:1"
             d="m 19.725312,17.756449 c -0.331158,0.449698 -0.783453,0.788488 -0.340859,1.879157 0.06498,0.485688 0.03163,0.948686 -0.182657,1.369927 -0.630949,0.215354 -1.050745,0.563196 -0.593634,1.461254 0.392656,1.392809 0.0069,2.231712 -0.41628,3.189807 -0.04286,0.355577 0.677477,0.324671 1.055579,0.303504 0.286001,-0.02643 0.580033,-0.101052 0.844787,0 0.968201,0.209736 1.397508,0.166658 1.758072,0.09133 0.320857,0.182815 1.176569,0.211117 2.465867,0.11416 0.539109,-0.198605 0.347973,-0.459803 0.151156,-0.721488 l 0.314822,0.363257 c 0.816216,-0.04081 0.357509,-0.326794 0.104941,-0.573138 -0.733645,-1.15487 -1.25062,-1.246083 -1.751704,-1.259289 -0.297143,0.02082 -0.527513,-0.02295 -1.089769,0.242171 -0.449187,0.258754 -1.022797,0.206449 -1.687125,-0.07265 -0.623956,-1.119353 -1.010634,-2.088429 -0.355184,-2.397492 0.02837,-1.00966 0.437227,-1.829078 1.283507,-2.429783 l 0.113013,-0.379401 c 0.442885,-0.03608 0.591351,-0.36657 0.694223,-0.742658 z"
             id="path154"
             sodipodi:nodetypes="cccccccccccccccccccc" /><path
             style="fill:#c8bfb0;fill-opacity:1;stroke:#000000;stroke-width:0.100012;stroke-dasharray:none;stroke-opacity:1"
             d="m 23.305867,24.658669 c 0.118036,0.19811 0.22445,0.402861 0.445226,0.542262 0.218235,-0.166196 0.385536,-0.171612 0.513722,-0.142701 -0.182726,-0.466134 -0.601781,-0.384066 -0.958948,-0.399561 z"
             id="path155"
             sodipodi:nodetypes="cccc" /><path
             style="fill:#c8bfb0;fill-opacity:1;stroke:#000000;stroke-width:0.100012;stroke-dasharray:none;stroke-opacity:1"
             d="m 23.956581,24.339019 c -0.0056,0.06468 0.365178,0.595553 0.43381,0.587927 0.195976,-0.262378 0.397659,-0.124497 0.593635,-0.02284 -0.330488,-0.621709 -0.682172,-0.564347 -1.027445,-0.565087 z"
             id="path156"
             sodipodi:nodetypes="cccc" /></g></g><path
         style="fill:#79564b;fill-opacity:1;stroke:#000000;stroke-width:0.100012;stroke-dasharray:none;stroke-opacity:1"
         d="m 296.63017,6.7025081 c 0.56137,0.8320166 10.43461,1.3597791 12.15752,3.8360309 2.1502,2.635594 3.29146,6.288532 6.68312,7.574717 1.43034,0.104193 2.84526,0.131305 4.15544,-0.365313 l 1.7809,-1.369926 c 3.60449,0.252696 3.2274,-0.821803 4.15544,-1.461255 l -0.41097,-2.876844 c -0.41157,-0.557541 -0.69672,-1.18461 -2.28322,-1.095941 -0.81437,-1.7785423 -1.86748,-3.4101741 -3.47047,-4.7034134 -3.21582,-1.2819649 -6.93215,0.094108 -10.32011,0.1826569 0.0108,0.2643309 -12.82363,-0.2779538 -12.44765,0.2792876 z"
         id="path146"
         sodipodi:nodetypes="scccccccccs"
         inkscape:label="body" /><path
         style="fill:#79564b;fill-opacity:1;stroke:#000000;stroke-width:0.1;stroke-opacity:1"
         d="m 325.10595,11.925757 c 0.0758,0.02865 0.47465,-0.369638 1.09594,-0.856204 0.90128,-0.486211 0.98662,-0.314222 1.43843,-0.308233 l 0.18265,4.155442 c -0.19104,0.150083 -0.44065,0.139117 -0.75346,-0.04566 -0.36938,-0.442287 -0.58048,-0.356989 -0.86762,-0.525139 -0.27805,0.08142 -0.54923,0.173156 -0.70779,0.43381 z"
         id="path147"
         sodipodi:nodetypes="cccccccc"
         inkscape:label="neck" /><g
         id="g152"
         style="fill:#79564b;fill-opacity:1"
         inkscape:label="head"
         transform="translate(296.38316,-1.0200442)"><path
           style="fill:#79564b;fill-opacity:1;stroke:#000000;stroke-width:0.1;stroke-opacity:1"
           d="m 31.094755,13.432418 c 0.08965,2.693789 0.739973,3.064791 1.420739,3.30967 1.230129,0.55243 2.195473,0.409798 3.083641,0.06458 0.597728,-0.569163 1.172811,-0.889216 1.727489,-0.984829 1.166251,0.739274 1.472914,0.872987 1.808209,0.887961 1.065303,-0.173732 1.104653,-0.779444 1.404591,-1.275434 0.322387,-0.242476 0.468248,-0.590867 0.64579,-0.92025 0.07417,-0.101719 0.415625,-0.07871 0.08072,-0.371329 0.05856,-1.066289 -0.286944,-1.459127 -0.678079,-1.77592 -0.335076,-0.24245 -0.714621,-0.381138 -1.178565,-0.322895 -0.724026,0.314031 -1.264432,0.370994 -1.775921,0.387473 -0.598585,-0.343654 -1.182654,-0.759882 -1.759775,-1.210854 -0.621406,-0.797597 -1.353655,-1.171977 -2.211829,-1.065553 -1.091797,0.189092 -2.078942,0.494465 -2.405565,1.53375 z"
           id="path148"
           sodipodi:nodetypes="ccccccccccccccc" /><path
           style="fill:#79564b;fill-opacity:1;stroke:#000000;stroke-width:0.1;stroke-opacity:1"
           d="m 34.065494,11.039321 c -0.553502,0.216626 -1.166655,0.338511 -1.221517,1.347094 0.142995,1.096327 0.882332,1.265013 1.552582,1.541166 3.032467,0.506314 5.955258,1.067428 6.940959,0.502306"
           id="path149"
           sodipodi:nodetypes="cccc" /><path
           style="fill:#c5bb8c;fill-opacity:1;stroke:#000000;stroke-width:0.1;stroke-opacity:1"
           d="m 36.371536,12.306502 c 0.08637,0.344896 0.337614,0.520469 0.821954,0.456642 -0.112753,-0.323819 -0.346579,-0.608478 -0.821954,-0.456642 z"
           id="path150"
           sodipodi:nodetypes="ccc" /><path
           style="fill:#79564b;fill-opacity:1;stroke:#000000;stroke-width:0.1;stroke-opacity:1"
           d="m 37.044091,12.479879 -0.05853,0.14732"
           id="path151" /><path
           style="fill:#c2c1ac;fill-opacity:1;stroke:#000000;stroke-width:0.05;stroke-dasharray:none;stroke-opacity:1"
           d="m 34.69503,13.993447 c 0.004,0.02825 -0.05247,0.326931 -0.05247,0.326931 l 0.217953,-0.238135 0.01212,0.298678 0.230063,-0.246207 v 0.330967 l 0.314822,-0.286569 -0.108979,0.460125 0.375367,-0.423799 c 0,0 -0.141266,0.480305 -0.108976,0.456088 0.03229,-0.02422 0.387471,-0.407654 0.387471,-0.407654 l -0.125121,0.476269 0.387474,-0.439944 -0.09283,0.500487 0.351147,-0.492414 -0.125121,0.58121 0.351147,-0.536812 c 0,0 -0.108977,0.532776 -0.08072,0.52874 0.02825,-0.004 0.399582,-0.480306 0.399582,-0.480306 l -0.125122,0.544885 c 0,0 0.383437,-0.504523 0.375365,-0.47627 -0.0081,0.02825 -0.100904,0.516631 -0.100904,0.516631 l 0.395544,-0.456088 -0.117049,0.49645 0.375367,-0.460125 -0.185666,0.548921 0.407654,-0.516631 -0.104939,0.504523 0.363257,-0.468197 c 0,0 -0.08476,0.460125 -0.08073,0.476269 0.004,0.01614 0.330968,-0.456089 0.330968,-0.456089 l -0.0888,0.516632 0.351147,-0.47627 -0.145301,0.508559 0.375364,-0.484342 c 0,0 -0.169519,0.609464 -0.153374,0.569102 0.01614,-0.04036 0.34711,-0.556993 0.34711,-0.556993 0,0 -0.117049,0.52874 -0.113012,0.544885 0.004,0.01614 0.435907,-0.589283 0.435907,-0.565066 0,0.02422 -0.125122,0.637717 -0.125122,0.637717 l 0.391512,-0.6135 -0.125124,0.637717 0.423802,-0.641753 -0.117052,0.69826 c 0,0 0.359222,-0.754766 0.359222,-0.714405 0,0.04036 -0.07265,0.730549 -0.07265,0.730549 l 0.415727,-0.762838 -0.07669,0.714404 0.435906,-0.819345 c -1.231258,0.274857 -3.835934,-0.169695 -6.385246,-0.585247 z"
           id="path152"
           sodipodi:nodetypes="cccccccccscccccccccccccccccccccccccsccscccccsccccc" /></g><g
         id="g146"
         style="fill:#79564b;fill-opacity:1"
         transform="rotate(-68.164061,164.45752,-200.21123)"
         inkscape:label="back leg"
         inkscape:transform-center-x="-4.1356589"
         inkscape:transform-center-y="1.9203121"><path
           style="fill:#79564b;fill-opacity:1;stroke:#000000;stroke-width:0.100012;stroke-dasharray:none;stroke-opacity:1"
           d="m 23.058733,17.140034 c -1.675359,1.707675 -1.459615,3.292018 -0.342481,4.817574 0.812036,2.083208 1.55165,2.428287 2.306041,3.127998 l 2.260378,0.410977 c 1.502487,-1.934313 2.430309,-3.733411 1.872232,-5.182886 0.530105,-4.399689 -1.085603,-4.567358 -2.694187,-4.749077 -1.133994,0.315304 -2.267989,0.662862 -3.401983,1.575414 z"
           id="path142"
           sodipodi:nodetypes="ccccccc" /><g
           id="g145"
           style="fill:#79564b;fill-opacity:1"
           transform="rotate(48.847115,16.858279,27.585952)"
           inkscape:transform-center-x="0.13059311"
           inkscape:transform-center-y="3.1180798"><path
             style="fill:#79564b;fill-opacity:1;stroke:#000000;stroke-width:0.100012;stroke-dasharray:none;stroke-opacity:1"
             d="m 19.725312,17.756449 c -0.331158,0.449698 -0.783453,0.788488 -0.340859,1.879157 0.06498,0.485688 0.03163,0.948686 -0.182657,1.369927 -0.630949,0.215354 -1.050745,0.563196 -0.593634,1.461254 0.392656,1.392809 0.0069,2.231712 -0.41628,3.189807 -0.04286,0.355577 0.677477,0.324671 1.055579,0.303504 0.286001,-0.02643 0.580033,-0.101052 0.844787,0 0.968201,0.209736 1.397508,0.166658 1.758072,0.09133 0.320857,0.182815 1.176569,0.211117 2.465867,0.11416 0.539109,-0.198605 0.347973,-0.459803 0.151156,-0.721488 l 0.314822,0.363257 c 0.816216,-0.04081 0.357509,-0.326794 0.104941,-0.573138 -0.733645,-1.15487 -1.25062,-1.246083 -1.751704,-1.259289 -0.297143,0.02082 -0.527513,-0.02295 -1.089769,0.242171 -0.449187,0.258754 -1.022797,0.206449 -1.687125,-0.07265 -0.623956,-1.119353 -1.010634,-2.088429 -0.355184,-2.397492 0.02837,-1.00966 0.437227,-1.829078 1.283507,-2.429783 l 0.113013,-0.379401 c 0.442885,-0.03608 0.591351,-0.36657 0.694223,-0.742658 z"
             id="path143"
             sodipodi:nodetypes="cccccccccccccccccccc" /><path
             style="fill:#c8bfb0;fill-opacity:1;stroke:#000000;stroke-width:0.100012;stroke-dasharray:none;stroke-opacity:1"
             d="m 23.305867,24.658669 c 0.118036,0.19811 0.22445,0.402861 0.445226,0.542262 0.218235,-0.166196 0.385536,-0.171612 0.513722,-0.142701 -0.182726,-0.466134 -0.601781,-0.384066 -0.958948,-0.399561 z"
             id="path144"
             sodipodi:nodetypes="cccc" /><path
             style="fill:#c8bfb0;fill-opacity:1;stroke:#000000;stroke-width:0.100012;stroke-dasharray:none;stroke-opacity:1"
             d="m 23.956581,24.339019 c -0.0056,0.06468 0.365178,0.595553 0.43381,0.587927 0.195976,-0.262378 0.397659,-0.124497 0.593635,-0.02284 -0.330488,-0.621709 -0.682172,-0.564347 -1.027445,-0.565087 z"
             id="path145"
             sodipodi:nodetypes="cccc" /></g></g></g><g
       id="g228"
       transform="translate(0.15877056)"
       inkscape:groupmode="layer"
       inkscape:label="7"><g
         id="g142"
         style="fill:#79564b;fill-opacity:1"
         transform="rotate(-50.699575,140.65666,-248.02329)"
         inkscape:label="front leg"
         inkscape:transform-center-x="-3.2649805"
         inkscape:transform-center-y="4.3235936"><path
           style="fill:#79564b;fill-opacity:1;stroke:#000000;stroke-width:0.100012;stroke-dasharray:none;stroke-opacity:1"
           d="m 23.058733,17.140034 c -1.675359,1.707675 -1.459615,3.292018 -0.342481,4.817574 0.812036,2.083208 1.55165,2.428287 2.306041,3.127998 l 2.260378,0.410977 c 1.502487,-1.934313 2.430309,-3.733411 1.872232,-5.182886 0.530105,-4.399689 -1.085603,-4.567358 -2.694187,-4.749077 -1.133994,0.315304 -2.267989,0.662862 -3.401983,1.575414 z"
           id="path138"
           sodipodi:nodetypes="ccccccc" /><g
           id="g141"
           style="fill:#79564b;fill-opacity:1"
           transform="rotate(48.847115,16.858279,27.585952)"
           inkscape:transform-center-x="0.13059311"
           inkscape:transform-center-y="3.1180798"><path
             style="fill:#79564b;fill-opacity:1;stroke:#000000;stroke-width:0.100012;stroke-dasharray:none;stroke-opacity:1"
             d="m 19.725312,17.756449 c -0.331158,0.449698 -0.783453,0.788488 -0.340859,1.879157 0.06498,0.485688 0.03163,0.948686 -0.182657,1.369927 -0.630949,0.215354 -1.050745,0.563196 -0.593634,1.461254 0.392656,1.392809 0.0069,2.231712 -0.41628,3.189807 -0.04286,0.355577 0.677477,0.324671 1.055579,0.303504 0.286001,-0.02643 0.580033,-0.101052 0.844787,0 0.968201,0.209736 1.397508,0.166658 1.758072,0.09133 0.320857,0.182815 1.176569,0.211117 2.465867,0.11416 0.539109,-0.198605 0.347973,-0.459803 0.151156,-0.721488 l 0.314822,0.363257 c 0.816216,-0.04081 0.357509,-0.326794 0.104941,-0.573138 -0.733645,-1.15487 -1.25062,-1.246083 -1.751704,-1.259289 -0.297143,0.02082 -0.527513,-0.02295 -1.089769,0.242171 -0.449187,0.258754 -1.022797,0.206449 -1.687125,-0.07265 -0.623956,-1.119353 -1.010634,-2.088429 -0.355184,-2.397492 0.02837,-1.00966 0.437227,-1.829078 1.283507,-2.429783 l 0.113013,-0.379401 c 0.442885,-0.03608 0.591351,-0.36657 0.694223,-0.742658 z"
             id="path139"
             sodipodi:nodetypes="cccccccccccccccccccc" /><path
             style="fill:#c8bfb0;fill-opacity:1;stroke:#000000;stroke-width:0.100012;stroke-dasharray:none;stroke-opacity:1"
             d="m 23.305867,24.658669 c 0.118036,0.19811 0.22445,0.402861 0.445226,0.542262 0.218235,-0.166196 0.385536,-0.171612 0.513722,-0.142701 -0.182726,-0.466134 -0.601781,-0.384066 -0.958948,-0.399561 z"
             id="path140"
             sodipodi:nodetypes="cccc" /><path
             style="fill:#c8bfb0;fill-opacity:1;stroke:#000000;stroke-width:0.100012;stroke-dasharray:none;stroke-opacity:1"
             d="m 23.956581,24.339019 c -0.0056,0.06468 0.365178,0.595553 0.43381,0.587927 0.195976,-0.262378 0.397659,-0.124497 0.593635,-0.02284 -0.330488,-0.621709 -0.682172,-0.564347 -1.027445,-0.565087 z"
             id="path141"
             sodipodi:nodetypes="cccc" /></g></g><path
         style="fill:#79564b;fill-opacity:1;stroke:#000000;stroke-width:0.100012;stroke-dasharray:none;stroke-opacity:1"
         d="m 254.50006,6.7025081 c 0.56137,0.8320166 10.43461,1.3597791 12.15752,3.8360309 2.1502,2.635594 3.29146,6.288532 6.68312,7.574717 1.43034,0.104193 2.84526,0.131305 4.15544,-0.365313 l 1.7809,-1.369926 c 3.60449,0.252696 3.2274,-0.821803 4.15544,-1.461255 l -0.41097,-2.876844 c -0.41157,-0.557541 -0.69672,-1.18461 -2.28322,-1.095941 -0.81437,-1.7785423 -1.86748,-3.4101741 -3.47047,-4.7034134 -3.21582,-1.2819649 -6.93215,0.094108 -10.32011,0.1826569 0.0108,0.2643309 -12.82363,-0.2779538 -12.44765,0.2792876 z"
         id="path131"
         sodipodi:nodetypes="scccccccccs"
         inkscape:label="body" /><path
         style="fill:#79564b;fill-opacity:1;stroke:#000000;stroke-width:0.1;stroke-opacity:1"
         d="m 282.97584,11.925757 c 0.0758,0.02865 0.47465,-0.369638 1.09594,-0.856204 0.90128,-0.486211 0.98662,-0.314222 1.43843,-0.308233 l 0.18265,4.155442 c -0.19104,0.150083 -0.44065,0.139117 -0.75346,-0.04566 -0.36938,-0.442287 -0.58048,-0.356989 -0.86762,-0.525139 -0.27805,0.08142 -0.54923,0.173156 -0.70779,0.43381 z"
         id="path132"
         sodipodi:nodetypes="cccccccc"
         inkscape:label="neck" /><g
         id="g137"
         style="fill:#79564b;fill-opacity:1"
         inkscape:label="head"
         transform="translate(254.25306,-1.0200442)"><path
           style="fill:#79564b;fill-opacity:1;stroke:#000000;stroke-width:0.1;stroke-opacity:1"
           d="m 31.094755,13.432418 c 0.08965,2.693789 0.739973,3.064791 1.420739,3.30967 1.230129,0.55243 2.195473,0.409798 3.083641,0.06458 0.597728,-0.569163 1.172811,-0.889216 1.727489,-0.984829 1.166251,0.739274 1.472914,0.872987 1.808209,0.887961 1.065303,-0.173732 1.104653,-0.779444 1.404591,-1.275434 0.322387,-0.242476 0.468248,-0.590867 0.64579,-0.92025 0.07417,-0.101719 0.415625,-0.07871 0.08072,-0.371329 0.05856,-1.066289 -0.286944,-1.459127 -0.678079,-1.77592 -0.335076,-0.24245 -0.714621,-0.381138 -1.178565,-0.322895 -0.724026,0.314031 -1.264432,0.370994 -1.775921,0.387473 -0.598585,-0.343654 -1.182654,-0.759882 -1.759775,-1.210854 -0.621406,-0.797597 -1.353655,-1.171977 -2.211829,-1.065553 -1.091797,0.189092 -2.078942,0.494465 -2.405565,1.53375 z"
           id="path133"
           sodipodi:nodetypes="ccccccccccccccc" /><path
           style="fill:#79564b;fill-opacity:1;stroke:#000000;stroke-width:0.1;stroke-opacity:1"
           d="m 34.065494,11.039321 c -0.553502,0.216626 -1.166655,0.338511 -1.221517,1.347094 0.142995,1.096327 0.882332,1.265013 1.552582,1.541166 3.032467,0.506314 5.955258,1.067428 6.940959,0.502306"
           id="path134"
           sodipodi:nodetypes="cccc" /><path
           style="fill:#c5bb8c;fill-opacity:1;stroke:#000000;stroke-width:0.1;stroke-opacity:1"
           d="m 36.371536,12.306502 c 0.08637,0.344896 0.337614,0.520469 0.821954,0.456642 -0.112753,-0.323819 -0.346579,-0.608478 -0.821954,-0.456642 z"
           id="path135"
           sodipodi:nodetypes="ccc" /><path
           style="fill:#79564b;fill-opacity:1;stroke:#000000;stroke-width:0.1;stroke-opacity:1"
           d="m 37.044091,12.479879 -0.05853,0.14732"
           id="path136" /><path
           style="fill:#c2c1ac;fill-opacity:1;stroke:#000000;stroke-width:0.05;stroke-dasharray:none;stroke-opacity:1"
           d="m 34.69503,13.993447 c 0.004,0.02825 -0.05247,0.326931 -0.05247,0.326931 l 0.217953,-0.238135 0.01212,0.298678 0.230063,-0.246207 v 0.330967 l 0.314822,-0.286569 -0.108979,0.460125 0.375367,-0.423799 c 0,0 -0.141266,0.480305 -0.108976,0.456088 0.03229,-0.02422 0.387471,-0.407654 0.387471,-0.407654 l -0.125121,0.476269 0.387474,-0.439944 -0.09283,0.500487 0.351147,-0.492414 -0.125121,0.58121 0.351147,-0.536812 c 0,0 -0.108977,0.532776 -0.08072,0.52874 0.02825,-0.004 0.399582,-0.480306 0.399582,-0.480306 l -0.125122,0.544885 c 0,0 0.383437,-0.504523 0.375365,-0.47627 -0.0081,0.02825 -0.100904,0.516631 -0.100904,0.516631 l 0.395544,-0.456088 -0.117049,0.49645 0.375367,-0.460125 -0.185666,0.548921 0.407654,-0.516631 -0.104939,0.504523 0.363257,-0.468197 c 0,0 -0.08476,0.460125 -0.08073,0.476269 0.004,0.01614 0.330968,-0.456089 0.330968,-0.456089 l -0.0888,0.516632 0.351147,-0.47627 -0.145301,0.508559 0.375364,-0.484342 c 0,0 -0.169519,0.609464 -0.153374,0.569102 0.01614,-0.04036 0.34711,-0.556993 0.34711,-0.556993 0,0 -0.117049,0.52874 -0.113012,0.544885 0.004,0.01614 0.435907,-0.589283 0.435907,-0.565066 0,0.02422 -0.125122,0.637717 -0.125122,0.637717 l 0.391512,-0.6135 -0.125124,0.637717 0.423802,-0.641753 -0.117052,0.69826 c 0,0 0.359222,-0.754766 0.359222,-0.714405 0,0.04036 -0.07265,0.730549 -0.07265,0.730549 l 0.415727,-0.762838 -0.07669,0.714404 0.435906,-0.819345 c -1.231258,0.274857 -3.835934,-0.169695 -6.385246,-0.585247 z"
           id="path137"
           sodipodi:nodetypes="cccccccccscccccccccccccccccccccccccsccscccccsccccc" /></g><g
         id="g131"
         style="fill:#79564b;fill-opacity:1"
         transform="rotate(37.008209,162.72898,388.02272)"
         inkscape:label="back leg"
         inkscape:transform-center-x="2.3846937"
         inkscape:transform-center-y="3.2357045"><path
           style="fill:#79564b;fill-opacity:1;stroke:#000000;stroke-width:0.100012;stroke-dasharray:none;stroke-opacity:1"
           d="m 23.058733,17.140034 c -1.675359,1.707675 -1.459615,3.292018 -0.342481,4.817574 0.812036,2.083208 1.55165,2.428287 2.306041,3.127998 l 2.260378,0.410977 c 1.502487,-1.934313 2.430309,-3.733411 1.872232,-5.182886 0.530105,-4.399689 -1.085603,-4.567358 -2.694187,-4.749077 -1.133994,0.315304 -2.267989,0.662862 -3.401983,1.575414 z"
           id="path127"
           sodipodi:nodetypes="ccccccc" /><g
           id="g130"
           style="fill:#79564b;fill-opacity:1"
           transform="rotate(48.847115,16.858279,27.585952)"
           inkscape:transform-center-x="0.13059311"
           inkscape:transform-center-y="3.1180798"><path
             style="fill:#79564b;fill-opacity:1;stroke:#000000;stroke-width:0.100012;stroke-dasharray:none;stroke-opacity:1"
             d="m 19.725312,17.756449 c -0.331158,0.449698 -0.783453,0.788488 -0.340859,1.879157 0.06498,0.485688 0.03163,0.948686 -0.182657,1.369927 -0.630949,0.215354 -1.050745,0.563196 -0.593634,1.461254 0.392656,1.392809 0.0069,2.231712 -0.41628,3.189807 -0.04286,0.355577 0.677477,0.324671 1.055579,0.303504 0.286001,-0.02643 0.580033,-0.101052 0.844787,0 0.968201,0.209736 1.397508,0.166658 1.758072,0.09133 0.320857,0.182815 1.176569,0.211117 2.465867,0.11416 0.539109,-0.198605 0.347973,-0.459803 0.151156,-0.721488 l 0.314822,0.363257 c 0.816216,-0.04081 0.357509,-0.326794 0.104941,-0.573138 -0.733645,-1.15487 -1.25062,-1.246083 -1.751704,-1.259289 -0.297143,0.02082 -0.527513,-0.02295 -1.089769,0.242171 -0.449187,0.258754 -1.022797,0.206449 -1.687125,-0.07265 -0.623956,-1.119353 -1.010634,-2.088429 -0.355184,-2.397492 0.02837,-1.00966 0.437227,-1.829078 1.283507,-2.429783 l 0.113013,-0.379401 c 0.442885,-0.03608 0.591351,-0.36657 0.694223,-0.742658 z"
             id="path128"
             sodipodi:nodetypes="cccccccccccccccccccc" /><path
             style="fill:#c8bfb0;fill-opacity:1;stroke:#000000;stroke-width:0.100012;stroke-dasharray:none;stroke-opacity:1"
             d="m 23.305867,24.658669 c 0.118036,0.19811 0.22445,0.402861 0.445226,0.542262 0.218235,-0.166196 0.385536,-0.171612 0.513722,-0.142701 -0.182726,-0.466134 -0.601781,-0.384066 -0.958948,-0.399561 z"
             id="path129"
             sodipodi:nodetypes="cccc" /><path
             style="fill:#c8bfb0;fill-opacity:1;stroke:#000000;stroke-width:0.100012;stroke-dasharray:none;stroke-opacity:1"
             d="m 23.956581,24.339019 c -0.0056,0.06468 0.365178,0.595553 0.43381,0.587927 0.195976,-0.262378 0.397659,-0.124497 0.593635,-0.02284 -0.330488,-0.621709 -0.682172,-0.564347 -1.027445,-0.565087 z"
             id="path130"
             sodipodi:nodetypes="cccc" /></g></g></g><g
       id="g231"
       transform="translate(0.15877056)"
       inkscape:groupmode="layer"
       inkscape:label="6"><g
         id="g127"
         style="fill:#79564b;fill-opacity:1"
         transform="rotate(-81.525872,123.77725,-105.49079)"
         inkscape:label="front leg"
         inkscape:transform-center-x="-5.5585607"
         inkscape:transform-center-y="2.8015744"><path
           style="fill:#79564b;fill-opacity:1;stroke:#000000;stroke-width:0.100012;stroke-dasharray:none;stroke-opacity:1"
           d="m 23.058733,17.140034 c -1.675359,1.707675 -1.459615,3.292018 -0.342481,4.817574 0.812036,2.083208 1.55165,2.428287 2.306041,3.127998 l 2.260378,0.410977 c 1.502487,-1.934313 2.430309,-3.733411 1.872232,-5.182886 0.530105,-4.399689 -1.085603,-4.567358 -2.694187,-4.749077 -1.133994,0.315304 -2.267989,0.662862 -3.401983,1.575414 z"
           id="path123"
           sodipodi:nodetypes="ccccccc" /><g
           id="g126"
           style="fill:#79564b;fill-opacity:1"
           transform="rotate(48.847115,16.858279,27.585952)"
           inkscape:transform-center-x="0.13059311"
           inkscape:transform-center-y="3.1180798"><path
             style="fill:#79564b;fill-opacity:1;stroke:#000000;stroke-width:0.100012;stroke-dasharray:none;stroke-opacity:1"
             d="m 19.725312,17.756449 c -0.331158,0.449698 -0.783453,0.788488 -0.340859,1.879157 0.06498,0.485688 0.03163,0.948686 -0.182657,1.369927 -0.630949,0.215354 -1.050745,0.563196 -0.593634,1.461254 0.392656,1.392809 0.0069,2.231712 -0.41628,3.189807 -0.04286,0.355577 0.677477,0.324671 1.055579,0.303504 0.286001,-0.02643 0.580033,-0.101052 0.844787,0 0.968201,0.209736 1.397508,0.166658 1.758072,0.09133 0.320857,0.182815 1.176569,0.211117 2.465867,0.11416 0.539109,-0.198605 0.347973,-0.459803 0.151156,-0.721488 l 0.314822,0.363257 c 0.816216,-0.04081 0.357509,-0.326794 0.104941,-0.573138 -0.733645,-1.15487 -1.25062,-1.246083 -1.751704,-1.259289 -0.297143,0.02082 -0.527513,-0.02295 -1.089769,0.242171 -0.449187,0.258754 -1.022797,0.206449 -1.687125,-0.07265 -0.623956,-1.119353 -1.010634,-2.088429 -0.355184,-2.397492 0.02837,-1.00966 0.437227,-1.829078 1.283507,-2.429783 l 0.113013,-0.379401 c 0.442885,-0.03608 0.591351,-0.36657 0.694223,-0.742658 z"
             id="path124"
             sodipodi:nodetypes="cccccccccccccccccccc" /><path
             style="fill:#c8bfb0;fill-opacity:1;stroke:#000000;stroke-width:0.100012;stroke-dasharray:none;stroke-opacity:1"
             d="m 23.305867,24.658669 c 0.118036,0.19811 0.22445,0.402861 0.445226,0.542262 0.218235,-0.166196 0.385536,-0.171612 0.513722,-0.142701 -0.182726,-0.466134 -0.601781,-0.384066 -0.958948,-0.399561 z"
             id="path125"
             sodipodi:nodetypes="cccc" /><path
             style="fill:#c8bfb0;fill-opacity:1;stroke:#000000;stroke-width:0.100012;stroke-dasharray:none;stroke-opacity:1"
             d="m 23.956581,24.339019 c -0.0056,0.06468 0.365178,0.595553 0.43381,0.587927 0.195976,-0.262378 0.397659,-0.124497 0.593635,-0.02284 -0.330488,-0.621709 -0.682172,-0.564347 -1.027445,-0.565087 z"
             id="path126"
             sodipodi:nodetypes="cccc" /></g></g><path
         style="fill:#79564b;fill-opacity:1;stroke:#000000;stroke-width:0.100012;stroke-dasharray:none;stroke-opacity:1"
         d="m 212.02379,6.7025081 c 0.56137,0.8320166 10.43461,1.3597791 12.15752,3.8360309 2.1502,2.635594 3.29146,6.288532 6.68312,7.574717 1.43034,0.104193 2.84526,0.131305 4.15544,-0.365313 l 1.7809,-1.369926 c 3.60449,0.252696 3.2274,-0.821803 4.15544,-1.461255 l -0.41097,-2.876844 c -0.41157,-0.557541 -0.69672,-1.18461 -2.28322,-1.095941 -0.81437,-1.7785423 -1.86748,-3.4101741 -3.47047,-4.7034134 -3.21582,-1.2819649 -6.93215,0.094108 -10.32011,0.1826569 0.0108,0.2643309 -12.82363,-0.2779538 -12.44765,0.2792876 z"
         id="path116"
         sodipodi:nodetypes="scccccccccs"
         inkscape:label="body" /><path
         style="fill:#79564b;fill-opacity:1;stroke:#000000;stroke-width:0.1;stroke-opacity:1"
         d="m 240.49957,11.925757 c 0.0758,0.02865 0.47465,-0.369638 1.09594,-0.856204 0.90128,-0.486211 0.98662,-0.314222 1.43843,-0.308233 l 0.18265,4.155442 c -0.19104,0.150083 -0.44065,0.139117 -0.75346,-0.04566 -0.36938,-0.442287 -0.58048,-0.356989 -0.86762,-0.525139 -0.27805,0.08142 -0.54923,0.173156 -0.70779,0.43381 z"
         id="path117"
         sodipodi:nodetypes="cccccccc"
         inkscape:label="neck" /><g
         id="g122"
         style="fill:#79564b;fill-opacity:1"
         inkscape:label="head"
         transform="translate(211.77679,-1.0200442)"><path
           style="fill:#79564b;fill-opacity:1;stroke:#000000;stroke-width:0.1;stroke-opacity:1"
           d="m 31.094755,13.432418 c 0.08965,2.693789 0.739973,3.064791 1.420739,3.30967 1.230129,0.55243 2.195473,0.409798 3.083641,0.06458 0.597728,-0.569163 1.172811,-0.889216 1.727489,-0.984829 1.166251,0.739274 1.472914,0.872987 1.808209,0.887961 1.065303,-0.173732 1.104653,-0.779444 1.404591,-1.275434 0.322387,-0.242476 0.468248,-0.590867 0.64579,-0.92025 0.07417,-0.101719 0.415625,-0.07871 0.08072,-0.371329 0.05856,-1.066289 -0.286944,-1.459127 -0.678079,-1.77592 -0.335076,-0.24245 -0.714621,-0.381138 -1.178565,-0.322895 -0.724026,0.314031 -1.264432,0.370994 -1.775921,0.387473 -0.598585,-0.343654 -1.182654,-0.759882 -1.759775,-1.210854 -0.621406,-0.797597 -1.353655,-1.171977 -2.211829,-1.065553 -1.091797,0.189092 -2.078942,0.494465 -2.405565,1.53375 z"
           id="path118"
           sodipodi:nodetypes="ccccccccccccccc" /><path
           style="fill:#79564b;fill-opacity:1;stroke:#000000;stroke-width:0.1;stroke-opacity:1"
           d="m 34.065494,11.039321 c -0.553502,0.216626 -1.166655,0.338511 -1.221517,1.347094 0.142995,1.096327 0.882332,1.265013 1.552582,1.541166 3.032467,0.506314 5.955258,1.067428 6.940959,0.502306"
           id="path119"
           sodipodi:nodetypes="cccc" /><path
           style="fill:#c5bb8c;fill-opacity:1;stroke:#000000;stroke-width:0.1;stroke-opacity:1"
           d="m 36.371536,12.306502 c 0.08637,0.344896 0.337614,0.520469 0.821954,0.456642 -0.112753,-0.323819 -0.346579,-0.608478 -0.821954,-0.456642 z"
           id="path120"
           sodipodi:nodetypes="ccc" /><path
           style="fill:#79564b;fill-opacity:1;stroke:#000000;stroke-width:0.1;stroke-opacity:1"
           d="m 37.044091,12.479879 -0.05853,0.14732"
           id="path121" /><path
           style="fill:#c2c1ac;fill-opacity:1;stroke:#000000;stroke-width:0.05;stroke-dasharray:none;stroke-opacity:1"
           d="m 34.69503,13.993447 c 0.004,0.02825 -0.05247,0.326931 -0.05247,0.326931 l 0.217953,-0.238135 0.01212,0.298678 0.230063,-0.246207 v 0.330967 l 0.314822,-0.286569 -0.108979,0.460125 0.375367,-0.423799 c 0,0 -0.141266,0.480305 -0.108976,0.456088 0.03229,-0.02422 0.387471,-0.407654 0.387471,-0.407654 l -0.125121,0.476269 0.387474,-0.439944 -0.09283,0.500487 0.351147,-0.492414 -0.125121,0.58121 0.351147,-0.536812 c 0,0 -0.108977,0.532776 -0.08072,0.52874 0.02825,-0.004 0.399582,-0.480306 0.399582,-0.480306 l -0.125122,0.544885 c 0,0 0.383437,-0.504523 0.375365,-0.47627 -0.0081,0.02825 -0.100904,0.516631 -0.100904,0.516631 l 0.395544,-0.456088 -0.117049,0.49645 0.375367,-0.460125 -0.185666,0.548921 0.407654,-0.516631 -0.104939,0.504523 0.363257,-0.468197 c 0,0 -0.08476,0.460125 -0.08073,0.476269 0.004,0.01614 0.330968,-0.456089 0.330968,-0.456089 l -0.0888,0.516632 0.351147,-0.47627 -0.145301,0.508559 0.375364,-0.484342 c 0,0 -0.169519,0.609464 -0.153374,0.569102 0.01614,-0.04036 0.34711,-0.556993 0.34711,-0.556993 0,0 -0.117049,0.52874 -0.113012,0.544885 0.004,0.01614 0.435907,-0.589283 0.435907,-0.565066 0,0.02422 -0.125122,0.637717 -0.125122,0.637717 l 0.391512,-0.6135 -0.125124,0.637717 0.423802,-0.641753 -0.117052,0.69826 c 0,0 0.359222,-0.754766 0.359222,-0.714405 0,0.04036 -0.07265,0.730549 -0.07265,0.730549 l 0.415727,-0.762838 -0.07669,0.714404 0.435906,-0.819345 c -1.231258,0.274857 -3.835934,-0.169695 -6.385246,-0.585247 z"
           id="path122"
           sodipodi:nodetypes="cccccccccscccccccccccccccccccccccccsccscccccsccccc" /></g><g
         id="g116"
         style="fill:#79564b;fill-opacity:1"
         transform="rotate(-50.374543,119.34717,-204.79429)"
         inkscape:label="back leg"
         inkscape:transform-center-x="-5.7466653"
         inkscape:transform-center-y="3.1586664"><path
           style="fill:#79564b;fill-opacity:1;stroke:#000000;stroke-width:0.100012;stroke-dasharray:none;stroke-opacity:1"
           d="m 23.058733,17.140034 c -1.675359,1.707675 -1.459615,3.292018 -0.342481,4.817574 0.812036,2.083208 1.55165,2.428287 2.306041,3.127998 l 2.260378,0.410977 c 1.502487,-1.934313 2.430309,-3.733411 1.872232,-5.182886 0.530105,-4.399689 -1.085603,-4.567358 -2.694187,-4.749077 -1.133994,0.315304 -2.267989,0.662862 -3.401983,1.575414 z"
           id="path112"
           sodipodi:nodetypes="ccccccc" /><g
           id="g115"
           style="fill:#79564b;fill-opacity:1"
           transform="rotate(48.847115,16.858279,27.585952)"
           inkscape:transform-center-x="0.13059311"
           inkscape:transform-center-y="3.1180798"><path
             style="fill:#79564b;fill-opacity:1;stroke:#000000;stroke-width:0.100012;stroke-dasharray:none;stroke-opacity:1"
             d="m 19.725312,17.756449 c -0.331158,0.449698 -0.783453,0.788488 -0.340859,1.879157 0.06498,0.485688 0.03163,0.948686 -0.182657,1.369927 -0.630949,0.215354 -1.050745,0.563196 -0.593634,1.461254 0.392656,1.392809 0.0069,2.231712 -0.41628,3.189807 -0.04286,0.355577 0.677477,0.324671 1.055579,0.303504 0.286001,-0.02643 0.580033,-0.101052 0.844787,0 0.968201,0.209736 1.397508,0.166658 1.758072,0.09133 0.320857,0.182815 1.176569,0.211117 2.465867,0.11416 0.539109,-0.198605 0.347973,-0.459803 0.151156,-0.721488 l 0.314822,0.363257 c 0.816216,-0.04081 0.357509,-0.326794 0.104941,-0.573138 -0.733645,-1.15487 -1.25062,-1.246083 -1.751704,-1.259289 -0.297143,0.02082 -0.527513,-0.02295 -1.089769,0.242171 -0.449187,0.258754 -1.022797,0.206449 -1.687125,-0.07265 -0.623956,-1.119353 -1.010634,-2.088429 -0.355184,-2.397492 0.02837,-1.00966 0.437227,-1.829078 1.283507,-2.429783 l 0.113013,-0.379401 c 0.442885,-0.03608 0.591351,-0.36657 0.694223,-0.742658 z"
             id="path113"
             sodipodi:nodetypes="cccccccccccccccccccc" /><path
             style="fill:#c8bfb0;fill-opacity:1;stroke:#000000;stroke-width:0.100012;stroke-dasharray:none;stroke-opacity:1"
             d="m 23.305867,24.658669 c 0.118036,0.19811 0.22445,0.402861 0.445226,0.542262 0.218235,-0.166196 0.385536,-0.171612 0.513722,-0.142701 -0.182726,-0.466134 -0.601781,-0.384066 -0.958948,-0.399561 z"
             id="path114"
             sodipodi:nodetypes="cccc" /><path
             style="fill:#c8bfb0;fill-opacity:1;stroke:#000000;stroke-width:0.100012;stroke-dasharray:none;stroke-opacity:1"
             d="m 23.956581,24.339019 c -0.0056,0.06468 0.365178,0.595553 0.43381,0.587927 0.195976,-0.262378 0.397659,-0.124497 0.593635,-0.02284 -0.330488,-0.621709 -0.682172,-0.564347 -1.027445,-0.565087 z"
             id="path115"
             sodipodi:nodetypes="cccc" /></g></g></g><g
       id="g232"
       transform="translate(0.15877056)"
       inkscape:groupmode="layer"
       inkscape:label="5"><g
         id="g101"
         style="fill:#79564b;fill-opacity:1"
         transform="rotate(-68.164061,100.76635,-106.07619)"
         inkscape:label="back leg"
         inkscape:transform-center-x="-4.1356589"
         inkscape:transform-center-y="1.9203121"><path
           style="fill:#79564b;fill-opacity:1;stroke:#000000;stroke-width:0.100012;stroke-dasharray:none;stroke-opacity:1"
           d="m 23.058733,17.140034 c -1.675359,1.707675 -1.459615,3.292018 -0.342481,4.817574 0.812036,2.083208 1.55165,2.428287 2.306041,3.127998 l 2.260378,0.410977 c 1.502487,-1.934313 2.430309,-3.733411 1.872232,-5.182886 0.530105,-4.399689 -1.085603,-4.567358 -2.694187,-4.749077 -1.133994,0.315304 -2.267989,0.662862 -3.401983,1.575414 z"
           id="path97"
           sodipodi:nodetypes="ccccccc" /><g
           id="g100"
           style="fill:#79564b;fill-opacity:1"
           transform="rotate(48.847115,16.858279,27.585952)"
           inkscape:transform-center-x="0.13059311"
           inkscape:transform-center-y="3.1180798"><path
             style="fill:#79564b;fill-opacity:1;stroke:#000000;stroke-width:0.100012;stroke-dasharray:none;stroke-opacity:1"
             d="m 19.725312,17.756449 c -0.331158,0.449698 -0.783453,0.788488 -0.340859,1.879157 0.06498,0.485688 0.03163,0.948686 -0.182657,1.369927 -0.630949,0.215354 -1.050745,0.563196 -0.593634,1.461254 0.392656,1.392809 0.0069,2.231712 -0.41628,3.189807 -0.04286,0.355577 0.677477,0.324671 1.055579,0.303504 0.286001,-0.02643 0.580033,-0.101052 0.844787,0 0.968201,0.209736 1.397508,0.166658 1.758072,0.09133 0.320857,0.182815 1.176569,0.211117 2.465867,0.11416 0.539109,-0.198605 0.347973,-0.459803 0.151156,-0.721488 l 0.314822,0.363257 c 0.816216,-0.04081 0.357509,-0.326794 0.104941,-0.573138 -0.733645,-1.15487 -1.25062,-1.246083 -1.751704,-1.259289 -0.297143,0.02082 -0.527513,-0.02295 -1.089769,0.242171 -0.449187,0.258754 -1.022797,0.206449 -1.687125,-0.07265 -0.623956,-1.119353 -1.010634,-2.088429 -0.355184,-2.397492 0.02837,-1.00966 0.437227,-1.829078 1.283507,-2.429783 l 0.113013,-0.379401 c 0.442885,-0.03608 0.591351,-0.36657 0.694223,-0.742658 z"
             id="path98"
             sodipodi:nodetypes="cccccccccccccccccccc" /><path
             style="fill:#c8bfb0;fill-opacity:1;stroke:#000000;stroke-width:0.100012;stroke-dasharray:none;stroke-opacity:1"
             d="m 23.305867,24.658669 c 0.118036,0.19811 0.22445,0.402861 0.445226,0.542262 0.218235,-0.166196 0.385536,-0.171612 0.513722,-0.142701 -0.182726,-0.466134 -0.601781,-0.384066 -0.958948,-0.399561 z"
             id="path99"
             sodipodi:nodetypes="cccc" /><path
             style="fill:#c8bfb0;fill-opacity:1;stroke:#000000;stroke-width:0.100012;stroke-dasharray:none;stroke-opacity:1"
             d="m 23.956581,24.339019 c -0.0056,0.06468 0.365178,0.595553 0.43381,0.587927 0.195976,-0.262378 0.397659,-0.124497 0.593635,-0.02284 -0.330488,-0.621709 -0.682172,-0.564347 -1.027445,-0.565087 z"
             id="path100"
             sodipodi:nodetypes="cccc" /></g></g><path
         style="fill:#79564b;fill-opacity:1;stroke:#000000;stroke-width:0.100012;stroke-dasharray:none;stroke-opacity:1"
         d="m 169.24785,6.7025081 c 0.56137,0.8320166 10.43461,1.3597791 12.15752,3.8360309 2.1502,2.635594 3.29146,6.288532 6.68312,7.574717 1.43034,0.104193 2.84526,0.131305 4.15544,-0.365313 l 1.7809,-1.369926 c 3.60449,0.252696 3.2274,-0.821803 4.15544,-1.461255 l -0.41097,-2.876844 c -0.41157,-0.557541 -0.69672,-1.18461 -2.28322,-1.095941 -0.81437,-1.7785423 -1.86748,-3.4101741 -3.47047,-4.7034134 -3.21582,-1.2819649 -6.93215,0.094108 -10.32011,0.1826569 0.0108,0.2643309 -12.82363,-0.2779538 -12.44765,0.2792876 z"
         id="path101"
         sodipodi:nodetypes="scccccccccs"
         inkscape:label="body" /><path
         style="fill:#79564b;fill-opacity:1;stroke:#000000;stroke-width:0.1;stroke-opacity:1"
         d="m 197.72363,11.925757 c 0.0758,0.02865 0.47465,-0.369638 1.09594,-0.856204 0.90128,-0.486211 0.98662,-0.314222 1.43843,-0.308233 l 0.18265,4.155442 c -0.19104,0.150083 -0.44065,0.139117 -0.75346,-0.04566 -0.36938,-0.442287 -0.58048,-0.356989 -0.86762,-0.525139 -0.27805,0.08142 -0.54923,0.173156 -0.70779,0.43381 z"
         id="path102"
         sodipodi:nodetypes="cccccccc"
         inkscape:label="neck" /><g
         id="g107"
         style="fill:#79564b;fill-opacity:1"
         inkscape:label="head"
         transform="translate(169.00085,-1.0200442)"><path
           style="fill:#79564b;fill-opacity:1;stroke:#000000;stroke-width:0.1;stroke-opacity:1"
           d="m 31.094755,13.432418 c 0.08965,2.693789 0.739973,3.064791 1.420739,3.30967 1.230129,0.55243 2.195473,0.409798 3.083641,0.06458 0.597728,-0.569163 1.172811,-0.889216 1.727489,-0.984829 1.166251,0.739274 1.472914,0.872987 1.808209,0.887961 1.065303,-0.173732 1.104653,-0.779444 1.404591,-1.275434 0.322387,-0.242476 0.468248,-0.590867 0.64579,-0.92025 0.07417,-0.101719 0.415625,-0.07871 0.08072,-0.371329 0.05856,-1.066289 -0.286944,-1.459127 -0.678079,-1.77592 -0.335076,-0.24245 -0.714621,-0.381138 -1.178565,-0.322895 -0.724026,0.314031 -1.264432,0.370994 -1.775921,0.387473 -0.598585,-0.343654 -1.182654,-0.759882 -1.759775,-1.210854 -0.621406,-0.797597 -1.353655,-1.171977 -2.211829,-1.065553 -1.091797,0.189092 -2.078942,0.494465 -2.405565,1.53375 z"
           id="path103"
           sodipodi:nodetypes="ccccccccccccccc" /><path
           style="fill:#79564b;fill-opacity:1;stroke:#000000;stroke-width:0.1;stroke-opacity:1"
           d="m 34.065494,11.039321 c -0.553502,0.216626 -1.166655,0.338511 -1.221517,1.347094 0.142995,1.096327 0.882332,1.265013 1.552582,1.541166 3.032467,0.506314 5.955258,1.067428 6.940959,0.502306"
           id="path104"
           sodipodi:nodetypes="cccc" /><path
           style="fill:#c5bb8c;fill-opacity:1;stroke:#000000;stroke-width:0.1;stroke-opacity:1"
           d="m 36.371536,12.306502 c 0.08637,0.344896 0.337614,0.520469 0.821954,0.456642 -0.112753,-0.323819 -0.346579,-0.608478 -0.821954,-0.456642 z"
           id="path105"
           sodipodi:nodetypes="ccc" /><path
           style="fill:#79564b;fill-opacity:1;stroke:#000000;stroke-width:0.1;stroke-opacity:1"
           d="m 37.044091,12.479879 -0.05853,0.14732"
           id="path106" /><path
           style="fill:#c2c1ac;fill-opacity:1;stroke:#000000;stroke-width:0.05;stroke-dasharray:none;stroke-opacity:1"
           d="m 34.69503,13.993447 c 0.004,0.02825 -0.05247,0.326931 -0.05247,0.326931 l 0.217953,-0.238135 0.01212,0.298678 0.230063,-0.246207 v 0.330967 l 0.314822,-0.286569 -0.108979,0.460125 0.375367,-0.423799 c 0,0 -0.141266,0.480305 -0.108976,0.456088 0.03229,-0.02422 0.387471,-0.407654 0.387471,-0.407654 l -0.125121,0.476269 0.387474,-0.439944 -0.09283,0.500487 0.351147,-0.492414 -0.125121,0.58121 0.351147,-0.536812 c 0,0 -0.108977,0.532776 -0.08072,0.52874 0.02825,-0.004 0.399582,-0.480306 0.399582,-0.480306 l -0.125122,0.544885 c 0,0 0.383437,-0.504523 0.375365,-0.47627 -0.0081,0.02825 -0.100904,0.516631 -0.100904,0.516631 l 0.395544,-0.456088 -0.117049,0.49645 0.375367,-0.460125 -0.185666,0.548921 0.407654,-0.516631 -0.104939,0.504523 0.363257,-0.468197 c 0,0 -0.08476,0.460125 -0.08073,0.476269 0.004,0.01614 0.330968,-0.456089 0.330968,-0.456089 l -0.0888,0.516632 0.351147,-0.47627 -0.145301,0.508559 0.375364,-0.484342 c 0,0 -0.169519,0.609464 -0.153374,0.569102 0.01614,-0.04036 0.34711,-0.556993 0.34711,-0.556993 0,0 -0.117049,0.52874 -0.113012,0.544885 0.004,0.01614 0.435907,-0.589283 0.435907,-0.565066 0,0.02422 -0.125122,0.637717 -0.125122,0.637717 l 0.391512,-0.6135 -0.125124,0.637717 0.423802,-0.641753 -0.117052,0.69826 c 0,0 0.359222,-0.754766 0.359222,-0.714405 0,0.04036 -0.07265,0.730549 -0.07265,0.730549 l 0.415727,-0.762838 -0.07669,0.714404 0.435906,-0.819345 c -1.231258,0.274857 -3.835934,-0.169695 -6.385246,-0.585247 z"
           id="path107"
           sodipodi:nodetypes="cccccccccscccccccccccccccccccccccccsccscccccsccccc" /></g><g
         id="g112"
         style="fill:#79564b;fill-opacity:1"
         transform="rotate(-50.699575,98.030563,-158.04951)"
         inkscape:label="front leg"
         inkscape:transform-center-x="-3.2649805"
         inkscape:transform-center-y="4.3235936"><path
           style="fill:#79564b;fill-opacity:1;stroke:#000000;stroke-width:0.100012;stroke-dasharray:none;stroke-opacity:1"
           d="m 27.454256,15.867955 c -2.320797,-0.580415 -3.577943,0.40765 -4.328101,2.143327 -1.385527,1.754842 -1.30873,2.567376 -1.530292,3.57217 l 0.789786,2.157417 c 2.428744,0.316602 4.449978,0.206053 5.417521,-1.008973 4.062689,-1.769981 3.389407,-3.248263 2.731848,-4.727513 -0.845957,-0.818362 -1.719731,-1.620397 -3.080762,-2.136428 z"
           id="path108"
           sodipodi:nodetypes="ccccccc" /><g
           id="g111"
           style="fill:#79564b;fill-opacity:1"
           transform="rotate(122.58769,20.742402,21.03572)"
           inkscape:transform-center-x="3.5701859"
           inkscape:transform-center-y="1.1617748"><path
             style="fill:#79564b;fill-opacity:1;stroke:#000000;stroke-width:0.100012;stroke-dasharray:none;stroke-opacity:1"
             d="m 19.725312,17.756449 c -0.331158,0.449698 -0.783453,0.788488 -0.340859,1.879157 0.06498,0.485688 0.03163,0.948686 -0.182657,1.369927 -0.630949,0.215354 -1.050745,0.563196 -0.593634,1.461254 0.392656,1.392809 0.0069,2.231712 -0.41628,3.189807 -0.04286,0.355577 0.677477,0.324671 1.055579,0.303504 0.286001,-0.02643 0.580033,-0.101052 0.844787,0 0.968201,0.209736 1.397508,0.166658 1.758072,0.09133 0.320857,0.182815 1.176569,0.211117 2.465867,0.11416 0.539109,-0.198605 0.347973,-0.459803 0.151156,-0.721488 l 0.314822,0.363257 c 0.816216,-0.04081 0.357509,-0.326794 0.104941,-0.573138 -0.733645,-1.15487 -1.25062,-1.246083 -1.751704,-1.259289 -0.297143,0.02082 -0.527513,-0.02295 -1.089769,0.242171 -0.449187,0.258754 -1.022797,0.206449 -1.687125,-0.07265 -0.623956,-1.119353 -1.010634,-2.088429 -0.355184,-2.397492 0.02837,-1.00966 0.437227,-1.829078 1.283507,-2.429783 l 0.113013,-0.379401 c 0.442885,-0.03608 0.591351,-0.36657 0.694223,-0.742658 z"
             id="path109"
             sodipodi:nodetypes="cccccccccccccccccccc" /><path
             style="fill:#c8bfb0;fill-opacity:1;stroke:#000000;stroke-width:0.100012;stroke-dasharray:none;stroke-opacity:1"
             d="m 23.305867,24.658669 c 0.118036,0.19811 0.22445,0.402861 0.445226,0.542262 0.218235,-0.166196 0.385536,-0.171612 0.513722,-0.142701 -0.182726,-0.466134 -0.601781,-0.384066 -0.958948,-0.399561 z"
             id="path110"
             sodipodi:nodetypes="cccc" /><path
             style="fill:#c8bfb0;fill-opacity:1;stroke:#000000;stroke-width:0.100012;stroke-dasharray:none;stroke-opacity:1"
             d="m 23.956581,24.339019 c -0.0056,0.06468 0.365178,0.595553 0.43381,0.587927 0.195976,-0.262378 0.397659,-0.124497 0.593635,-0.02284 -0.330488,-0.621709 -0.682172,-0.564347 -1.027445,-0.565087 z"
             id="path111"
             sodipodi:nodetypes="cccc" /></g></g></g><g
       id="g233"
       transform="translate(0.15877056)"
       inkscape:groupmode="layer"
       inkscape:label="4"><g
         id="g86"
         style="fill:#79564b;fill-opacity:1"
         transform="rotate(37.008208,99.119354,197.95884)"
         inkscape:label="back leg"
         inkscape:transform-center-x="2.3846937"
         inkscape:transform-center-y="3.2357045"><path
           style="fill:#79564b;fill-opacity:1;stroke:#000000;stroke-width:0.100012;stroke-dasharray:none;stroke-opacity:1"
           d="m 23.058733,17.140034 c -1.675359,1.707675 -1.459615,3.292018 -0.342481,4.817574 0.812036,2.083208 1.55165,2.428287 2.306041,3.127998 l 2.260378,0.410977 c 1.502487,-1.934313 2.430309,-3.733411 1.872232,-5.182886 0.530105,-4.399689 -1.085603,-4.567358 -2.694187,-4.749077 -1.133994,0.315304 -2.267989,0.662862 -3.401983,1.575414 z"
           id="path82"
           sodipodi:nodetypes="ccccccc" /><g
           id="g85"
           style="fill:#79564b;fill-opacity:1"
           transform="rotate(48.847115,16.858279,27.585952)"
           inkscape:transform-center-x="0.13059311"
           inkscape:transform-center-y="3.1180798"><path
             style="fill:#79564b;fill-opacity:1;stroke:#000000;stroke-width:0.100012;stroke-dasharray:none;stroke-opacity:1"
             d="m 19.725312,17.756449 c -0.331158,0.449698 -0.783453,0.788488 -0.340859,1.879157 0.06498,0.485688 0.03163,0.948686 -0.182657,1.369927 -0.630949,0.215354 -1.050745,0.563196 -0.593634,1.461254 0.392656,1.392809 0.0069,2.231712 -0.41628,3.189807 -0.04286,0.355577 0.677477,0.324671 1.055579,0.303504 0.286001,-0.02643 0.580033,-0.101052 0.844787,0 0.968201,0.209736 1.397508,0.166658 1.758072,0.09133 0.320857,0.182815 1.176569,0.211117 2.465867,0.11416 0.539109,-0.198605 0.347973,-0.459803 0.151156,-0.721488 l 0.314822,0.363257 c 0.816216,-0.04081 0.357509,-0.326794 0.104941,-0.573138 -0.733645,-1.15487 -1.25062,-1.246083 -1.751704,-1.259289 -0.297143,0.02082 -0.527513,-0.02295 -1.089769,0.242171 -0.449187,0.258754 -1.022797,0.206449 -1.687125,-0.07265 -0.623956,-1.119353 -1.010634,-2.088429 -0.355184,-2.397492 0.02837,-1.00966 0.437227,-1.829078 1.283507,-2.429783 l 0.113013,-0.379401 c 0.442885,-0.03608 0.591351,-0.36657 0.694223,-0.742658 z"
             id="path83"
             sodipodi:nodetypes="cccccccccccccccccccc" /><path
             style="fill:#c8bfb0;fill-opacity:1;stroke:#000000;stroke-width:0.100012;stroke-dasharray:none;stroke-opacity:1"
             d="m 23.305867,24.658669 c 0.118036,0.19811 0.22445,0.402861 0.445226,0.542262 0.218235,-0.166196 0.385536,-0.171612 0.513722,-0.142701 -0.182726,-0.466134 -0.601781,-0.384066 -0.958948,-0.399561 z"
             id="path84"
             sodipodi:nodetypes="cccc" /><path
             style="fill:#c8bfb0;fill-opacity:1;stroke:#000000;stroke-width:0.100012;stroke-dasharray:none;stroke-opacity:1"
             d="m 23.956581,24.339019 c -0.0056,0.06468 0.365178,0.595553 0.43381,0.587927 0.195976,-0.262378 0.397659,-0.124497 0.593635,-0.02284 -0.330488,-0.621709 -0.682172,-0.564347 -1.027445,-0.565087 z"
             id="path85"
             sodipodi:nodetypes="cccc" /></g></g><path
         style="fill:#79564b;fill-opacity:1;stroke:#000000;stroke-width:0.100012;stroke-dasharray:none;stroke-opacity:1"
         d="m 127.28081,6.7025081 c 0.56137,0.8320166 10.43461,1.3597791 12.15752,3.8360309 2.1502,2.635594 3.29146,6.288532 6.68312,7.574717 1.43034,0.104193 2.84526,0.131305 4.15544,-0.365313 l 1.7809,-1.369926 c 3.60449,0.252696 3.2274,-0.821803 4.15544,-1.461255 l -0.41097,-2.876844 c -0.41157,-0.557541 -0.69672,-1.18461 -2.28322,-1.095941 -0.81437,-1.7785423 -1.86748,-3.4101741 -3.47047,-4.7034134 -3.21582,-1.2819649 -6.93215,0.094108 -10.32011,0.1826569 0.0108,0.2643309 -12.82363,-0.2779538 -12.44765,0.2792876 z"
         id="path86"
         sodipodi:nodetypes="scccccccccs"
         inkscape:label="body" /><path
         style="fill:#79564b;fill-opacity:1;stroke:#000000;stroke-width:0.1;stroke-opacity:1"
         d="m 155.75659,11.925757 c 0.0758,0.02865 0.47465,-0.369638 1.09594,-0.856204 0.90128,-0.486211 0.98662,-0.314222 1.43843,-0.308233 l 0.18265,4.155442 c -0.19104,0.150083 -0.44065,0.139117 -0.75346,-0.04566 -0.36938,-0.442287 -0.58048,-0.356989 -0.86762,-0.525139 -0.27805,0.08142 -0.54923,0.173156 -0.70779,0.43381 z"
         id="path87"
         sodipodi:nodetypes="cccccccc"
         inkscape:label="neck" /><g
         id="g92"
         style="fill:#79564b;fill-opacity:1"
         inkscape:label="head"
         transform="translate(127.03381,-1.0200442)"><path
           style="fill:#79564b;fill-opacity:1;stroke:#000000;stroke-width:0.1;stroke-opacity:1"
           d="m 31.094755,13.432418 c 0.08965,2.693789 0.739973,3.064791 1.420739,3.30967 1.230129,0.55243 2.195473,0.409798 3.083641,0.06458 0.597728,-0.569163 1.172811,-0.889216 1.727489,-0.984829 1.166251,0.739274 1.472914,0.872987 1.808209,0.887961 1.065303,-0.173732 1.104653,-0.779444 1.404591,-1.275434 0.322387,-0.242476 0.468248,-0.590867 0.64579,-0.92025 0.07417,-0.101719 0.415625,-0.07871 0.08072,-0.371329 0.05856,-1.066289 -0.286944,-1.459127 -0.678079,-1.77592 -0.335076,-0.24245 -0.714621,-0.381138 -1.178565,-0.322895 -0.724026,0.314031 -1.264432,0.370994 -1.775921,0.387473 -0.598585,-0.343654 -1.182654,-0.759882 -1.759775,-1.210854 -0.621406,-0.797597 -1.353655,-1.171977 -2.211829,-1.065553 -1.091797,0.189092 -2.078942,0.494465 -2.405565,1.53375 z"
           id="path88"
           sodipodi:nodetypes="ccccccccccccccc" /><path
           style="fill:#79564b;fill-opacity:1;stroke:#000000;stroke-width:0.1;stroke-opacity:1"
           d="m 34.065494,11.039321 c -0.553502,0.216626 -1.166655,0.338511 -1.221517,1.347094 0.142995,1.096327 0.882332,1.265013 1.552582,1.541166 3.032467,0.506314 5.955258,1.067428 6.940959,0.502306"
           id="path89"
           sodipodi:nodetypes="cccc" /><path
           style="fill:#c5bb8c;fill-opacity:1;stroke:#000000;stroke-width:0.1;stroke-opacity:1"
           d="m 36.371536,12.306502 c 0.08637,0.344896 0.337614,0.520469 0.821954,0.456642 -0.112753,-0.323819 -0.346579,-0.608478 -0.821954,-0.456642 z"
           id="path90"
           sodipodi:nodetypes="ccc" /><path
           style="fill:#79564b;fill-opacity:1;stroke:#000000;stroke-width:0.1;stroke-opacity:1"
           d="m 37.044091,12.479879 -0.05853,0.14732"
           id="path91" /><path
           style="fill:#c2c1ac;fill-opacity:1;stroke:#000000;stroke-width:0.05;stroke-dasharray:none;stroke-opacity:1"
           d="m 34.69503,13.993447 c 0.004,0.02825 -0.05247,0.326931 -0.05247,0.326931 l 0.217953,-0.238135 0.01212,0.298678 0.230063,-0.246207 v 0.330967 l 0.314822,-0.286569 -0.108979,0.460125 0.375367,-0.423799 c 0,0 -0.141266,0.480305 -0.108976,0.456088 0.03229,-0.02422 0.387471,-0.407654 0.387471,-0.407654 l -0.125121,0.476269 0.387474,-0.439944 -0.09283,0.500487 0.351147,-0.492414 -0.125121,0.58121 0.351147,-0.536812 c 0,0 -0.108977,0.532776 -0.08072,0.52874 0.02825,-0.004 0.399582,-0.480306 0.399582,-0.480306 l -0.125122,0.544885 c 0,0 0.383437,-0.504523 0.375365,-0.47627 -0.0081,0.02825 -0.100904,0.516631 -0.100904,0.516631 l 0.395544,-0.456088 -0.117049,0.49645 0.375367,-0.460125 -0.185666,0.548921 0.407654,-0.516631 -0.104939,0.504523 0.363257,-0.468197 c 0,0 -0.08476,0.460125 -0.08073,0.476269 0.004,0.01614 0.330968,-0.456089 0.330968,-0.456089 l -0.0888,0.516632 0.351147,-0.47627 -0.145301,0.508559 0.375364,-0.484342 c 0,0 -0.169519,0.609464 -0.153374,0.569102 0.01614,-0.04036 0.34711,-0.556993 0.34711,-0.556993 0,0 -0.117049,0.52874 -0.113012,0.544885 0.004,0.01614 0.435907,-0.589283 0.435907,-0.565066 0,0.02422 -0.125122,0.637717 -0.125122,0.637717 l 0.391512,-0.6135 -0.125124,0.637717 0.423802,-0.641753 -0.117052,0.69826 c 0,0 0.359222,-0.754766 0.359222,-0.714405 0,0.04036 -0.07265,0.730549 -0.07265,0.730549 l 0.415727,-0.762838 -0.07669,0.714404 0.435906,-0.819345 c -1.231258,0.274857 -3.835934,-0.169695 -6.385246,-0.585247 z"
           id="path92"
           sodipodi:nodetypes="cccccccccscccccccccccccccccccccccccsccscccccsccccc" /></g><g
         id="g97"
         style="fill:#79564b;fill-opacity:1"
         transform="rotate(-50.699575,77.047041,-113.75818)"
         inkscape:label="front leg"
         inkscape:transform-center-x="-3.2649805"
         inkscape:transform-center-y="4.3235936"><path
           style="fill:#79564b;fill-opacity:1;stroke:#000000;stroke-width:0.100012;stroke-dasharray:none;stroke-opacity:1"
           d="m 23.058733,17.140034 c -1.675359,1.707675 -1.459615,3.292018 -0.342481,4.817574 0.812036,2.083208 1.55165,2.428287 2.306041,3.127998 l 2.260378,0.410977 c 1.502487,-1.934313 2.430309,-3.733411 1.872232,-5.182886 0.530105,-4.399689 -1.085603,-4.567358 -2.694187,-4.749077 -1.133994,0.315304 -2.267989,0.662862 -3.401983,1.575414 z"
           id="path93"
           sodipodi:nodetypes="ccccccc" /><g
           id="g96"
           style="fill:#79564b;fill-opacity:1"
           transform="rotate(48.847115,16.858279,27.585952)"
           inkscape:transform-center-x="0.13059311"
           inkscape:transform-center-y="3.1180798"><path
             style="fill:#79564b;fill-opacity:1;stroke:#000000;stroke-width:0.100012;stroke-dasharray:none;stroke-opacity:1"
             d="m 19.725312,17.756449 c -0.331158,0.449698 -0.783453,0.788488 -0.340859,1.879157 0.06498,0.485688 0.03163,0.948686 -0.182657,1.369927 -0.630949,0.215354 -1.050745,0.563196 -0.593634,1.461254 0.392656,1.392809 0.0069,2.231712 -0.41628,3.189807 -0.04286,0.355577 0.677477,0.324671 1.055579,0.303504 0.286001,-0.02643 0.580033,-0.101052 0.844787,0 0.968201,0.209736 1.397508,0.166658 1.758072,0.09133 0.320857,0.182815 1.176569,0.211117 2.465867,0.11416 0.539109,-0.198605 0.347973,-0.459803 0.151156,-0.721488 l 0.314822,0.363257 c 0.816216,-0.04081 0.357509,-0.326794 0.104941,-0.573138 -0.733645,-1.15487 -1.25062,-1.246083 -1.751704,-1.259289 -0.297143,0.02082 -0.527513,-0.02295 -1.089769,0.242171 -0.449187,0.258754 -1.022797,0.206449 -1.687125,-0.07265 -0.623956,-1.119353 -1.010634,-2.088429 -0.355184,-2.397492 0.02837,-1.00966 0.437227,-1.829078 1.283507,-2.429783 l 0.113013,-0.379401 c 0.442885,-0.03608 0.591351,-0.36657 0.694223,-0.742658 z"
             id="path94"
             sodipodi:nodetypes="cccccccccccccccccccc" /><path
             style="fill:#c8bfb0;fill-opacity:1;stroke:#000000;stroke-width:0.100012;stroke-dasharray:none;stroke-opacity:1"
             d="m 23.305867,24.658669 c 0.118036,0.19811 0.22445,0.402861 0.445226,0.542262 0.218235,-0.166196 0.385536,-0.171612 0.513722,-0.142701 -0.182726,-0.466134 -0.601781,-0.384066 -0.958948,-0.399561 z"
             id="path95"
             sodipodi:nodetypes="cccc" /><path
             style="fill:#c8bfb0;fill-opacity:1;stroke:#000000;stroke-width:0.100012;stroke-dasharray:none;stroke-opacity:1"
             d="m 23.956581,24.339019 c -0.0056,0.06468 0.365178,0.595553 0.43381,0.587927 0.195976,-0.262378 0.397659,-0.124497 0.593635,-0.02284 -0.330488,-0.621709 -0.682172,-0.564347 -1.027445,-0.565087 z"
             id="path96"
             sodipodi:nodetypes="cccc" /></g></g></g><g
       id="g229"
       transform="translate(0.15877056)"
       inkscape:groupmode="layer"
       inkscape:label="3"><g
         id="g71"
         style="fill:#79564b;fill-opacity:1"
         transform="rotate(-50.374543,56.016841,-70.132848)"
         inkscape:label="back leg"
         inkscape:transform-center-x="-5.7466653"
         inkscape:transform-center-y="3.1586664"><path
           style="fill:#79564b;fill-opacity:1;stroke:#000000;stroke-width:0.100012;stroke-dasharray:none;stroke-opacity:1"
           d="m 23.058733,17.140034 c -1.675359,1.707675 -1.459615,3.292018 -0.342481,4.817574 0.812036,2.083208 1.55165,2.428287 2.306041,3.127998 l 2.260378,0.410977 c 1.502487,-1.934313 2.430309,-3.733411 1.872232,-5.182886 0.530105,-4.399689 -1.085603,-4.567358 -2.694187,-4.749077 -1.133994,0.315304 -2.267989,0.662862 -3.401983,1.575414 z"
           id="path56"
           sodipodi:nodetypes="ccccccc" /><g
           id="g70"
           style="fill:#79564b;fill-opacity:1"
           transform="rotate(48.847115,16.858279,27.585952)"
           inkscape:transform-center-x="0.13059311"
           inkscape:transform-center-y="3.1180798"><path
             style="fill:#79564b;fill-opacity:1;stroke:#000000;stroke-width:0.100012;stroke-dasharray:none;stroke-opacity:1"
             d="m 19.725312,17.756449 c -0.331158,0.449698 -0.783453,0.788488 -0.340859,1.879157 0.06498,0.485688 0.03163,0.948686 -0.182657,1.369927 -0.630949,0.215354 -1.050745,0.563196 -0.593634,1.461254 0.392656,1.392809 0.0069,2.231712 -0.41628,3.189807 -0.04286,0.355577 0.677477,0.324671 1.055579,0.303504 0.286001,-0.02643 0.580033,-0.101052 0.844787,0 0.968201,0.209736 1.397508,0.166658 1.758072,0.09133 0.320857,0.182815 1.176569,0.211117 2.465867,0.11416 0.539109,-0.198605 0.347973,-0.459803 0.151156,-0.721488 l 0.314822,0.363257 c 0.816216,-0.04081 0.357509,-0.326794 0.104941,-0.573138 -0.733645,-1.15487 -1.25062,-1.246083 -1.751704,-1.259289 -0.297143,0.02082 -0.527513,-0.02295 -1.089769,0.242171 -0.449187,0.258754 -1.022797,0.206449 -1.687125,-0.07265 -0.623956,-1.119353 -1.010634,-2.088429 -0.355184,-2.397492 0.02837,-1.00966 0.437227,-1.829078 1.283507,-2.429783 l 0.113013,-0.379401 c 0.442885,-0.03608 0.591351,-0.36657 0.694223,-0.742658 z"
             id="path57"
             sodipodi:nodetypes="cccccccccccccccccccc" /><path
             style="fill:#c8bfb0;fill-opacity:1;stroke:#000000;stroke-width:0.100012;stroke-dasharray:none;stroke-opacity:1"
             d="m 23.305867,24.658669 c 0.118036,0.19811 0.22445,0.402861 0.445226,0.542262 0.218235,-0.166196 0.385536,-0.171612 0.513722,-0.142701 -0.182726,-0.466134 -0.601781,-0.384066 -0.958948,-0.399561 z"
             id="path69"
             sodipodi:nodetypes="cccc" /><path
             style="fill:#c8bfb0;fill-opacity:1;stroke:#000000;stroke-width:0.100012;stroke-dasharray:none;stroke-opacity:1"
             d="m 23.956581,24.339019 c -0.0056,0.06468 0.365178,0.595553 0.43381,0.587927 0.195976,-0.262378 0.397659,-0.124497 0.593635,-0.02284 -0.330488,-0.621709 -0.682172,-0.564347 -1.027445,-0.565087 z"
             id="path70"
             sodipodi:nodetypes="cccc" /></g></g><path
         style="fill:#79564b;fill-opacity:1;stroke:#000000;stroke-width:0.100012;stroke-dasharray:none;stroke-opacity:1"
         d="m 85.363137,6.7025081 c 0.561371,0.8320166 10.434609,1.3597791 12.157521,3.8360309 2.150197,2.635594 3.291462,6.288532 6.683122,7.574717 1.43034,0.104193 2.84526,0.131305 4.15544,-0.365313 l 1.7809,-1.369926 c 3.60449,0.252696 3.2274,-0.821803 4.15544,-1.461255 l -0.41097,-2.876844 c -0.41157,-0.557541 -0.69672,-1.18461 -2.28322,-1.095941 C 110.787,9.1654347 109.73389,7.5338029 108.1309,6.2405636 104.91508,4.9585987 101.19875,6.3346716 97.810787,6.4232205 97.821577,6.6875514 84.98716,6.1452667 85.363137,6.7025081 Z"
         id="path71"
         sodipodi:nodetypes="scccccccccs"
         inkscape:label="body" /><path
         style="fill:#79564b;fill-opacity:1;stroke:#000000;stroke-width:0.1;stroke-opacity:1"
         d="m 113.83892,11.925757 c 0.0758,0.02865 0.47465,-0.369638 1.09594,-0.856204 0.90128,-0.486211 0.98662,-0.314222 1.43843,-0.308233 l 0.18265,4.155442 c -0.19104,0.150083 -0.44065,0.139117 -0.75346,-0.04566 -0.36938,-0.442287 -0.58048,-0.356989 -0.86762,-0.525139 -0.27805,0.08142 -0.54923,0.173156 -0.70779,0.43381 z"
         id="path72"
         sodipodi:nodetypes="cccccccc"
         inkscape:label="neck" /><g
         id="g77"
         style="fill:#79564b;fill-opacity:1"
         inkscape:label="head"
         transform="translate(85.116139,-1.0200442)"><path
           style="fill:#79564b;fill-opacity:1;stroke:#000000;stroke-width:0.1;stroke-opacity:1"
           d="m 31.094755,13.432418 c 0.08965,2.693789 0.739973,3.064791 1.420739,3.30967 1.230129,0.55243 2.195473,0.409798 3.083641,0.06458 0.597728,-0.569163 1.172811,-0.889216 1.727489,-0.984829 1.166251,0.739274 1.472914,0.872987 1.808209,0.887961 1.065303,-0.173732 1.104653,-0.779444 1.404591,-1.275434 0.322387,-0.242476 0.468248,-0.590867 0.64579,-0.92025 0.07417,-0.101719 0.415625,-0.07871 0.08072,-0.371329 0.05856,-1.066289 -0.286944,-1.459127 -0.678079,-1.77592 -0.335076,-0.24245 -0.714621,-0.381138 -1.178565,-0.322895 -0.724026,0.314031 -1.264432,0.370994 -1.775921,0.387473 -0.598585,-0.343654 -1.182654,-0.759882 -1.759775,-1.210854 -0.621406,-0.797597 -1.353655,-1.171977 -2.211829,-1.065553 -1.091797,0.189092 -2.078942,0.494465 -2.405565,1.53375 z"
           id="path73"
           sodipodi:nodetypes="ccccccccccccccc" /><path
           style="fill:#79564b;fill-opacity:1;stroke:#000000;stroke-width:0.1;stroke-opacity:1"
           d="m 34.065494,11.039321 c -0.553502,0.216626 -1.166655,0.338511 -1.221517,1.347094 0.142995,1.096327 0.882332,1.265013 1.552582,1.541166 3.032467,0.506314 5.955258,1.067428 6.940959,0.502306"
           id="path74"
           sodipodi:nodetypes="cccc" /><path
           style="fill:#c5bb8c;fill-opacity:1;stroke:#000000;stroke-width:0.1;stroke-opacity:1"
           d="m 36.371536,12.306502 c 0.08637,0.344896 0.337614,0.520469 0.821954,0.456642 -0.112753,-0.323819 -0.346579,-0.608478 -0.821954,-0.456642 z"
           id="path75"
           sodipodi:nodetypes="ccc" /><path
           style="fill:#79564b;fill-opacity:1;stroke:#000000;stroke-width:0.1;stroke-opacity:1"
           d="m 37.044091,12.479879 -0.05853,0.14732"
           id="path76" /><path
           style="fill:#c2c1ac;fill-opacity:1;stroke:#000000;stroke-width:0.05;stroke-dasharray:none;stroke-opacity:1"
           d="m 34.69503,13.993447 c 0.004,0.02825 -0.05247,0.326931 -0.05247,0.326931 l 0.217953,-0.238135 0.01212,0.298678 0.230063,-0.246207 v 0.330967 l 0.314822,-0.286569 -0.108979,0.460125 0.375367,-0.423799 c 0,0 -0.141266,0.480305 -0.108976,0.456088 0.03229,-0.02422 0.387471,-0.407654 0.387471,-0.407654 l -0.125121,0.476269 0.387474,-0.439944 -0.09283,0.500487 0.351147,-0.492414 -0.125121,0.58121 0.351147,-0.536812 c 0,0 -0.108977,0.532776 -0.08072,0.52874 0.02825,-0.004 0.399582,-0.480306 0.399582,-0.480306 l -0.125122,0.544885 c 0,0 0.383437,-0.504523 0.375365,-0.47627 -0.0081,0.02825 -0.100904,0.516631 -0.100904,0.516631 l 0.395544,-0.456088 -0.117049,0.49645 0.375367,-0.460125 -0.185666,0.548921 0.407654,-0.516631 -0.104939,0.504523 0.363257,-0.468197 c 0,0 -0.08476,0.460125 -0.08073,0.476269 0.004,0.01614 0.330968,-0.456089 0.330968,-0.456089 l -0.0888,0.516632 0.351147,-0.47627 -0.145301,0.508559 0.375364,-0.484342 c 0,0 -0.169519,0.609464 -0.153374,0.569102 0.01614,-0.04036 0.34711,-0.556993 0.34711,-0.556993 0,0 -0.117049,0.52874 -0.113012,0.544885 0.004,0.01614 0.435907,-0.589283 0.435907,-0.565066 0,0.02422 -0.125122,0.637717 -0.125122,0.637717 l 0.391512,-0.6135 -0.125124,0.637717 0.423802,-0.641753 -0.117052,0.69826 c 0,0 0.359222,-0.754766 0.359222,-0.714405 0,0.04036 -0.07265,0.730549 -0.07265,0.730549 l 0.415727,-0.762838 -0.07669,0.714404 0.435906,-0.819345 c -1.231258,0.274857 -3.835934,-0.169695 -6.385246,-0.585247 z"
           id="path77"
           sodipodi:nodetypes="cccccccccscccccccccccccccccccccccccsccscccccsccccc" /></g><g
         id="g82"
         style="fill:#79564b;fill-opacity:1"
         transform="rotate(-81.525872,60.446927,-32.025878)"
         inkscape:label="front leg"
         inkscape:transform-center-x="-5.5585607"
         inkscape:transform-center-y="2.8015744"><path
           style="fill:#79564b;fill-opacity:1;stroke:#000000;stroke-width:0.100012;stroke-dasharray:none;stroke-opacity:1"
           d="m 23.058733,17.140034 c -1.675359,1.707675 -1.459615,3.292018 -0.342481,4.817574 0.812036,2.083208 1.55165,2.428287 2.306041,3.127998 l 2.260378,0.410977 c 1.502487,-1.934313 2.430309,-3.733411 1.872232,-5.182886 0.530105,-4.399689 -1.085603,-4.567358 -2.694187,-4.749077 -1.133994,0.315304 -2.267989,0.662862 -3.401983,1.575414 z"
           id="path78"
           sodipodi:nodetypes="ccccccc" /><g
           id="g81"
           style="fill:#79564b;fill-opacity:1"
           transform="rotate(48.847115,16.858279,27.585952)"
           inkscape:transform-center-x="0.13059311"
           inkscape:transform-center-y="3.1180798"><path
             style="fill:#79564b;fill-opacity:1;stroke:#000000;stroke-width:0.100012;stroke-dasharray:none;stroke-opacity:1"
             d="m 19.725312,17.756449 c -0.331158,0.449698 -0.783453,0.788488 -0.340859,1.879157 0.06498,0.485688 0.03163,0.948686 -0.182657,1.369927 -0.630949,0.215354 -1.050745,0.563196 -0.593634,1.461254 0.392656,1.392809 0.0069,2.231712 -0.41628,3.189807 -0.04286,0.355577 0.677477,0.324671 1.055579,0.303504 0.286001,-0.02643 0.580033,-0.101052 0.844787,0 0.968201,0.209736 1.397508,0.166658 1.758072,0.09133 0.320857,0.182815 1.176569,0.211117 2.465867,0.11416 0.539109,-0.198605 0.347973,-0.459803 0.151156,-0.721488 l 0.314822,0.363257 c 0.816216,-0.04081 0.357509,-0.326794 0.104941,-0.573138 -0.733645,-1.15487 -1.25062,-1.246083 -1.751704,-1.259289 -0.297143,0.02082 -0.527513,-0.02295 -1.089769,0.242171 -0.449187,0.258754 -1.022797,0.206449 -1.687125,-0.07265 -0.623956,-1.119353 -1.010634,-2.088429 -0.355184,-2.397492 0.02837,-1.00966 0.437227,-1.829078 1.283507,-2.429783 l 0.113013,-0.379401 c 0.442885,-0.03608 0.591351,-0.36657 0.694223,-0.742658 z"
             id="path79"
             sodipodi:nodetypes="cccccccccccccccccccc" /><path
             style="fill:#c8bfb0;fill-opacity:1;stroke:#000000;stroke-width:0.100012;stroke-dasharray:none;stroke-opacity:1"
             d="m 23.305867,24.658669 c 0.118036,0.19811 0.22445,0.402861 0.445226,0.542262 0.218235,-0.166196 0.385536,-0.171612 0.513722,-0.142701 -0.182726,-0.466134 -0.601781,-0.384066 -0.958948,-0.399561 z"
             id="path80"
             sodipodi:nodetypes="cccc" /><path
             style="fill:#c8bfb0;fill-opacity:1;stroke:#000000;stroke-width:0.100012;stroke-dasharray:none;stroke-opacity:1"
             d="m 23.956581,24.339019 c -0.0056,0.06468 0.365178,0.595553 0.43381,0.587927 0.195976,-0.262378 0.397659,-0.124497 0.593635,-0.02284 -0.330488,-0.621709 -0.682172,-0.564347 -1.027445,-0.565087 z"
             id="path81"
             sodipodi:nodetypes="cccc" /></g></g></g><g
       id="g234"
       transform="translate(0.15877056)"
       inkscape:groupmode="layer"
       inkscape:label="2"><g
         id="g41"
         style="fill:#79564b;fill-opacity:1"
         transform="rotate(-50.374543,34.885199,-25.199918)"
         inkscape:label="back leg"
         inkscape:transform-center-x="-5.7466653"
         inkscape:transform-center-y="3.1586664"><path
           style="fill:#79564b;fill-opacity:1;stroke:#000000;stroke-width:0.100012;stroke-dasharray:none;stroke-opacity:1"
           d="m 23.058733,17.140034 c -1.675359,1.707675 -1.459615,3.292018 -0.342481,4.817574 0.812036,2.083208 1.55165,2.428287 2.306041,3.127998 l 2.260378,0.410977 c 1.502487,-1.934313 2.430309,-3.733411 1.872232,-5.182886 0.530105,-4.399689 -1.085603,-4.567358 -2.694187,-4.749077 -1.133994,0.315304 -2.267989,0.662862 -3.401983,1.575414 z"
           id="path37"
           sodipodi:nodetypes="ccccccc" /><g
           id="g40"
           style="fill:#79564b;fill-opacity:1"
           transform="rotate(48.847115,16.858279,27.585952)"
           inkscape:transform-center-x="0.13059311"
           inkscape:transform-center-y="3.1180798"><path
             style="fill:#79564b;fill-opacity:1;stroke:#000000;stroke-width:0.100012;stroke-dasharray:none;stroke-opacity:1"
             d="m 19.725312,17.756449 c -0.331158,0.449698 -0.783453,0.788488 -0.340859,1.879157 0.06498,0.485688 0.03163,0.948686 -0.182657,1.369927 -0.630949,0.215354 -1.050745,0.563196 -0.593634,1.461254 0.392656,1.392809 0.0069,2.231712 -0.41628,3.189807 -0.04286,0.355577 0.677477,0.324671 1.055579,0.303504 0.286001,-0.02643 0.580033,-0.101052 0.844787,0 0.968201,0.209736 1.397508,0.166658 1.758072,0.09133 0.320857,0.182815 1.176569,0.211117 2.465867,0.11416 0.539109,-0.198605 0.347973,-0.459803 0.151156,-0.721488 l 0.314822,0.363257 c 0.816216,-0.04081 0.357509,-0.326794 0.104941,-0.573138 -0.733645,-1.15487 -1.25062,-1.246083 -1.751704,-1.259289 -0.297143,0.02082 -0.527513,-0.02295 -1.089769,0.242171 -0.449187,0.258754 -1.022797,0.206449 -1.687125,-0.07265 -0.623956,-1.119353 -1.010634,-2.088429 -0.355184,-2.397492 0.02837,-1.00966 0.437227,-1.829078 1.283507,-2.429783 l 0.113013,-0.379401 c 0.442885,-0.03608 0.591351,-0.36657 0.694223,-0.742658 z"
             id="path38"
             sodipodi:nodetypes="cccccccccccccccccccc" /><path
             style="fill:#c8bfb0;fill-opacity:1;stroke:#000000;stroke-width:0.100012;stroke-dasharray:none;stroke-opacity:1"
             d="m 23.305867,24.658669 c 0.118036,0.19811 0.22445,0.402861 0.445226,0.542262 0.218235,-0.166196 0.385536,-0.171612 0.513722,-0.142701 -0.182726,-0.466134 -0.601781,-0.384066 -0.958948,-0.399561 z"
             id="path39"
             sodipodi:nodetypes="cccc" /><path
             style="fill:#c8bfb0;fill-opacity:1;stroke:#000000;stroke-width:0.100012;stroke-dasharray:none;stroke-opacity:1"
             d="m 23.956581,24.339019 c -0.0056,0.06468 0.365178,0.595553 0.43381,0.587927 0.195976,-0.262378 0.397659,-0.124497 0.593635,-0.02284 -0.330488,-0.621709 -0.682172,-0.564347 -1.027445,-0.565087 z"
             id="path40"
             sodipodi:nodetypes="cccc" /></g></g><path
         style="fill:#79564b;fill-opacity:1;stroke:#000000;stroke-width:0.100012;stroke-dasharray:none;stroke-opacity:1"
         d="m 43.099856,6.7025081 c 0.561371,0.8320166 10.434609,1.3597791 12.157521,3.8360309 2.150197,2.635594 3.291462,6.288532 6.683122,7.574717 1.43034,0.104193 2.84526,0.131305 4.15544,-0.365313 l 1.7809,-1.369926 c 3.60449,0.252696 3.2274,-0.821803 4.15544,-1.461255 l -0.41097,-2.876844 c -0.41157,-0.557541 -0.69672,-1.18461 -2.28322,-1.095941 -0.81437,-1.7785423 -1.86748,-3.4101741 -3.47047,-4.7034134 -3.21582,-1.2819649 -6.93215,0.094108 -10.320113,0.1826569 0.01079,0.2643309 -12.823627,-0.2779538 -12.44765,0.2792876 z"
         id="path30"
         sodipodi:nodetypes="scccccccccs"
         inkscape:label="body" /><path
         style="fill:#79564b;fill-opacity:1;stroke:#000000;stroke-width:0.1;stroke-opacity:1"
         d="m 71.575639,11.925757 c 0.0758,0.02865 0.47465,-0.369638 1.09594,-0.856204 0.90128,-0.486211 0.98662,-0.314222 1.43843,-0.308233 l 0.18265,4.155442 c -0.19104,0.150083 -0.44065,0.139117 -0.75346,-0.04566 -0.36938,-0.442287 -0.58048,-0.356989 -0.86762,-0.525139 -0.27805,0.08142 -0.54923,0.173156 -0.70779,0.43381 z"
         id="path31"
         sodipodi:nodetypes="cccccccc"
         inkscape:label="neck" /><g
         id="g36"
         style="fill:#79564b;fill-opacity:1"
         inkscape:label="head"
         transform="translate(42.852858,-1.0200442)"><path
           style="fill:#79564b;fill-opacity:1;stroke:#000000;stroke-width:0.1;stroke-opacity:1"
           d="m 31.094755,13.432418 c 0.08965,2.693789 0.739973,3.064791 1.420739,3.30967 1.230129,0.55243 2.195473,0.409798 3.083641,0.06458 0.597728,-0.569163 1.172811,-0.889216 1.727489,-0.984829 1.166251,0.739274 1.472914,0.872987 1.808209,0.887961 1.065303,-0.173732 1.104653,-0.779444 1.404591,-1.275434 0.322387,-0.242476 0.468248,-0.590867 0.64579,-0.92025 0.07417,-0.101719 0.415625,-0.07871 0.08072,-0.371329 0.05856,-1.066289 -0.286944,-1.459127 -0.678079,-1.77592 -0.335076,-0.24245 -0.714621,-0.381138 -1.178565,-0.322895 -0.724026,0.314031 -1.264432,0.370994 -1.775921,0.387473 -0.598585,-0.343654 -1.182654,-0.759882 -1.759775,-1.210854 -0.621406,-0.797597 -1.353655,-1.171977 -2.211829,-1.065553 -1.091797,0.189092 -2.078942,0.494465 -2.405565,1.53375 z"
           id="path32"
           sodipodi:nodetypes="ccccccccccccccc" /><path
           style="fill:#79564b;fill-opacity:1;stroke:#000000;stroke-width:0.1;stroke-opacity:1"
           d="m 34.065494,11.039321 c -0.553502,0.216626 -1.166655,0.338511 -1.221517,1.347094 0.142995,1.096327 0.882332,1.265013 1.552582,1.541166 3.032467,0.506314 5.955258,1.067428 6.940959,0.502306"
           id="path33"
           sodipodi:nodetypes="cccc" /><path
           style="fill:#c5bb8c;fill-opacity:1;stroke:#000000;stroke-width:0.1;stroke-opacity:1"
           d="m 36.371536,12.306502 c 0.08637,0.344896 0.337614,0.520469 0.821954,0.456642 -0.112753,-0.323819 -0.346579,-0.608478 -0.821954,-0.456642 z"
           id="path34"
           sodipodi:nodetypes="ccc" /><path
           style="fill:#79564b;fill-opacity:1;stroke:#000000;stroke-width:0.1;stroke-opacity:1"
           d="m 37.044091,12.479879 -0.05853,0.14732"
           id="path35" /><path
           style="fill:#c2c1ac;fill-opacity:1;stroke:#000000;stroke-width:0.05;stroke-dasharray:none;stroke-opacity:1"
           d="m 34.69503,13.993447 c 0.004,0.02825 -0.05247,0.326931 -0.05247,0.326931 l 0.217953,-0.238135 0.01212,0.298678 0.230063,-0.246207 v 0.330967 l 0.314822,-0.286569 -0.108979,0.460125 0.375367,-0.423799 c 0,0 -0.141266,0.480305 -0.108976,0.456088 0.03229,-0.02422 0.387471,-0.407654 0.387471,-0.407654 l -0.125121,0.476269 0.387474,-0.439944 -0.09283,0.500487 0.351147,-0.492414 -0.125121,0.58121 0.351147,-0.536812 c 0,0 -0.108977,0.532776 -0.08072,0.52874 0.02825,-0.004 0.399582,-0.480306 0.399582,-0.480306 l -0.125122,0.544885 c 0,0 0.383437,-0.504523 0.375365,-0.47627 -0.0081,0.02825 -0.100904,0.516631 -0.100904,0.516631 l 0.395544,-0.456088 -0.117049,0.49645 0.375367,-0.460125 -0.185666,0.548921 0.407654,-0.516631 -0.104939,0.504523 0.363257,-0.468197 c 0,0 -0.08476,0.460125 -0.08073,0.476269 0.004,0.01614 0.330968,-0.456089 0.330968,-0.456089 l -0.0888,0.516632 0.351147,-0.47627 -0.145301,0.508559 0.375364,-0.484342 c 0,0 -0.169519,0.609464 -0.153374,0.569102 0.01614,-0.04036 0.34711,-0.556993 0.34711,-0.556993 0,0 -0.117049,0.52874 -0.113012,0.544885 0.004,0.01614 0.435907,-0.589283 0.435907,-0.565066 0,0.02422 -0.125122,0.637717 -0.125122,0.637717 l 0.391512,-0.6135 -0.125124,0.637717 0.423802,-0.641753 -0.117052,0.69826 c 0,0 0.359222,-0.754766 0.359222,-0.714405 0,0.04036 -0.07265,0.730549 -0.07265,0.730549 l 0.415727,-0.762838 -0.07669,0.714404 0.435906,-0.819345 c -1.231258,0.274857 -3.835934,-0.169695 -6.385246,-0.585247 z"
           id="path36"
           sodipodi:nodetypes="cccccccccscccccccccccccccccccccccccsccscccccsccccc" /></g><g
         id="g56"
         style="fill:#79564b;fill-opacity:1"
         transform="rotate(-50.374543,34.885196,-25.199919)"
         inkscape:label="front leg"
         inkscape:transform-center-x="-5.7466653"
         inkscape:transform-center-y="3.1586664"><path
           style="fill:#79564b;fill-opacity:1;stroke:#000000;stroke-width:0.100012;stroke-dasharray:none;stroke-opacity:1"
           d="m 23.058733,17.140034 c -1.675359,1.707675 -1.459615,3.292018 -0.342481,4.817574 0.812036,2.083208 1.55165,2.428287 2.306041,3.127998 l 2.260378,0.410977 c 1.502487,-1.934313 2.430309,-3.733411 1.872232,-5.182886 0.530105,-4.399689 -1.085603,-4.567358 -2.694187,-4.749077 -1.133994,0.315304 -2.267989,0.662862 -3.401983,1.575414 z"
           id="path52"
           sodipodi:nodetypes="ccccccc" /><g
           id="g55"
           style="fill:#79564b;fill-opacity:1"
           transform="rotate(48.847115,16.858279,27.585952)"
           inkscape:transform-center-x="0.13059311"
           inkscape:transform-center-y="3.1180798"><path
             style="fill:#79564b;fill-opacity:1;stroke:#000000;stroke-width:0.100012;stroke-dasharray:none;stroke-opacity:1"
             d="m 19.725312,17.756449 c -0.331158,0.449698 -0.783453,0.788488 -0.340859,1.879157 0.06498,0.485688 0.03163,0.948686 -0.182657,1.369927 -0.630949,0.215354 -1.050745,0.563196 -0.593634,1.461254 0.392656,1.392809 0.0069,2.231712 -0.41628,3.189807 -0.04286,0.355577 0.677477,0.324671 1.055579,0.303504 0.286001,-0.02643 0.580033,-0.101052 0.844787,0 0.968201,0.209736 1.397508,0.166658 1.758072,0.09133 0.320857,0.182815 1.176569,0.211117 2.465867,0.11416 0.539109,-0.198605 0.347973,-0.459803 0.151156,-0.721488 l 0.314822,0.363257 c 0.816216,-0.04081 0.357509,-0.326794 0.104941,-0.573138 -0.733645,-1.15487 -1.25062,-1.246083 -1.751704,-1.259289 -0.297143,0.02082 -0.527513,-0.02295 -1.089769,0.242171 -0.449187,0.258754 -1.022797,0.206449 -1.687125,-0.07265 -0.623956,-1.119353 -1.010634,-2.088429 -0.355184,-2.397492 0.02837,-1.00966 0.437227,-1.829078 1.283507,-2.429783 l 0.113013,-0.379401 c 0.442885,-0.03608 0.591351,-0.36657 0.694223,-0.742658 z"
             id="path53"
             sodipodi:nodetypes="cccccccccccccccccccc" /><path
             style="fill:#c8bfb0;fill-opacity:1;stroke:#000000;stroke-width:0.100012;stroke-dasharray:none;stroke-opacity:1"
             d="m 23.305867,24.658669 c 0.118036,0.19811 0.22445,0.402861 0.445226,0.542262 0.218235,-0.166196 0.385536,-0.171612 0.513722,-0.142701 -0.182726,-0.466134 -0.601781,-0.384066 -0.958948,-0.399561 z"
             id="path54"
             sodipodi:nodetypes="cccc" /><path
             style="fill:#c8bfb0;fill-opacity:1;stroke:#000000;stroke-width:0.100012;stroke-dasharray:none;stroke-opacity:1"
             d="m 23.956581,24.339019 c -0.0056,0.06468 0.365178,0.595553 0.43381,0.587927 0.195976,-0.262378 0.397659,-0.124497 0.593635,-0.02284 -0.330488,-0.621709 -0.682172,-0.564347 -1.027445,-0.565087 z"
             id="path55"
             sodipodi:nodetypes="cccc" /></g></g></g><g
       id="g235"
       transform="translate(0.15877056)"
       inkscape:groupmode="layer"
       inkscape:label="1"><g
         id="g69"
         style="fill:#79564b;fill-opacity:1"
         transform="translate(-4.9208493,-11.010448)"
         inkscape:label="back leg"
         inkscape:transform-center-x="-0.67490868"
         inkscape:transform-center-y="5.2280305"><path
           style="fill:#79564b;fill-opacity:1;stroke:#000000;stroke-width:0.100012;stroke-dasharray:none;stroke-opacity:1"
           d="M 9.9547958,11.256225 C 8.279437,12.9639 8.4951806,14.548243 9.6123142,16.073799 c 0.8120368,2.083208 1.5516508,2.428287 2.3060418,3.127998 l 2.260378,0.410977 c 1.502487,-1.934313 2.430309,-3.733411 1.872232,-5.182886 C 16.581071,10.030199 14.965363,9.8625299 13.356779,9.6808108 12.222785,9.9961146 11.08879,10.343673 9.9547958,11.256225 Z"
           id="path65"
           sodipodi:nodetypes="ccccccc"
           transform="translate(13.735092,4.0923216)" /><g
           id="g68"
           style="fill:#79564b;fill-opacity:1"
           transform="translate(5.8123544,5.530744)"><path
             style="fill:#79564b;fill-opacity:1;stroke:#000000;stroke-width:0.100012;stroke-dasharray:none;stroke-opacity:1"
             d="m 19.725312,17.756449 c -0.331158,0.449698 -0.783453,0.788488 -0.340859,1.879157 0.06498,0.485688 0.03163,0.948686 -0.182657,1.369927 -0.630949,0.215354 -1.050745,0.563196 -0.593634,1.461254 0.392656,1.392809 0.0069,2.231712 -0.41628,3.189807 -0.04286,0.355577 0.677477,0.324671 1.055579,0.303504 0.286001,-0.02643 0.580033,-0.101052 0.844787,0 0.968201,0.209736 1.397508,0.166658 1.758072,0.09133 0.320857,0.182815 1.176569,0.211117 2.465867,0.11416 0.539109,-0.198605 0.347973,-0.459803 0.151156,-0.721488 l 0.314822,0.363257 c 0.816216,-0.04081 0.357509,-0.326794 0.104941,-0.573138 -0.733645,-1.15487 -1.25062,-1.246083 -1.751704,-1.259289 -0.297143,0.02082 -0.527513,-0.02295 -1.089769,0.242171 -0.449187,0.258754 -1.022797,0.206449 -1.687125,-0.07265 -0.623956,-1.119353 -1.010634,-2.088429 -0.355184,-2.397492 0.02837,-1.00966 0.437227,-1.829078 1.283507,-2.429783 l 0.113013,-0.379401 c 0.442885,-0.03608 0.591351,-0.36657 0.694223,-0.742658 z"
             id="path66"
             sodipodi:nodetypes="cccccccccccccccccccc" /><path
             style="fill:#c8bfb0;fill-opacity:1;stroke:#000000;stroke-width:0.100012;stroke-dasharray:none;stroke-opacity:1"
             d="m 23.305867,24.658669 c 0.118036,0.19811 0.22445,0.402861 0.445226,0.542262 0.218235,-0.166196 0.385536,-0.171612 0.513722,-0.142701 -0.182726,-0.466134 -0.601781,-0.384066 -0.958948,-0.399561 z"
             id="path67"
             sodipodi:nodetypes="cccc" /><path
             style="fill:#c8bfb0;fill-opacity:1;stroke:#000000;stroke-width:0.100012;stroke-dasharray:none;stroke-opacity:1"
             d="m 23.956581,24.339019 c -0.0056,0.06468 0.365178,0.595553 0.43381,0.587927 0.195976,-0.262378 0.397659,-0.124497 0.593635,-0.02284 -0.330488,-0.621709 -0.682172,-0.564347 -1.027445,-0.565087 z"
             id="path68"
             sodipodi:nodetypes="cccc" /></g></g><path
         style="fill:#79564b;fill-opacity:1;stroke:#000000;stroke-width:0.100012;stroke-dasharray:none;stroke-opacity:1"
         d="m 1.1385049,2.2428481 c 0.5613712,0.8320166 10.4346091,1.3597791 12.1575211,3.8360306 2.150197,2.635595 3.291463,6.2885323 6.683117,7.5747173 1.43034,0.104193 2.845264,0.131305 4.155442,-0.365313 l 1.780904,-1.369926 c 3.604491,0.252696 3.227396,-0.821803 4.155442,-1.461255 L 29.659953,7.5802577 C 29.248388,7.0227167 28.963235,6.3956477 27.376742,6.4843167 26.562364,4.7057747 25.509258,3.0741429 23.906264,1.7809036 20.690449,0.49893871 16.974119,1.8750116 13.586155,1.9635605 13.596944,2.2278914 0.76252761,1.6856067 1.1385049,2.2428481 Z"
         id="path58"
         sodipodi:nodetypes="scccccccccs"
         inkscape:label="body" /><path
         style="fill:#79564b;fill-opacity:1;stroke:#000000;stroke-width:0.1;stroke-opacity:1"
         d="m 29.614289,7.4660967 c 0.07577,0.02865 0.47465,-0.369638 1.09594,-0.856204 0.901274,-0.486211 0.986621,-0.314222 1.438424,-0.308233 l 0.182655,4.1554423 c -0.191043,0.150083 -0.440649,0.139117 -0.753459,-0.04566 -0.369378,-0.4422863 -0.580482,-0.356989 -0.867619,-0.5251383 -0.27805,0.08142 -0.549231,0.1731553 -0.707795,0.4338093 z"
         id="path59"
         sodipodi:nodetypes="cccccccc"
         inkscape:label="neck" /><g
         id="g64"
         style="fill:#79564b;fill-opacity:1"
         inkscape:label="head"
         transform="translate(0.89150675,-5.4797043)"><path
           style="fill:#79564b;fill-opacity:1;stroke:#000000;stroke-width:0.1;stroke-opacity:1"
           d="m 31.094755,13.432418 c 0.08965,2.693789 0.739973,3.064791 1.420739,3.30967 1.230129,0.55243 2.195473,0.409798 3.083641,0.06458 0.597728,-0.569163 1.172811,-0.889216 1.727489,-0.984829 1.166251,0.739274 1.472914,0.872987 1.808209,0.887961 1.065303,-0.173732 1.104653,-0.779444 1.404591,-1.275434 0.322387,-0.242476 0.468248,-0.590867 0.64579,-0.92025 0.07417,-0.101719 0.415625,-0.07871 0.08072,-0.371329 0.05856,-1.066289 -0.286944,-1.459127 -0.678079,-1.77592 -0.335076,-0.24245 -0.714621,-0.381138 -1.178565,-0.322895 -0.724026,0.314031 -1.264432,0.370994 -1.775921,0.387473 -0.598585,-0.343654 -1.182654,-0.759882 -1.759775,-1.210854 -0.621406,-0.797597 -1.353655,-1.171977 -2.211829,-1.065553 -1.091797,0.189092 -2.078942,0.494465 -2.405565,1.53375 z"
           id="path60"
           sodipodi:nodetypes="ccccccccccccccc" /><path
           style="fill:#79564b;fill-opacity:1;stroke:#000000;stroke-width:0.1;stroke-opacity:1"
           d="m 34.065494,11.039321 c -0.553502,0.216626 -1.166655,0.338511 -1.221517,1.347094 0.142995,1.096327 0.882332,1.265013 1.552582,1.541166 3.032467,0.506314 5.955258,1.067428 6.940959,0.502306"
           id="path61"
           sodipodi:nodetypes="cccc" /><path
           style="fill:#c5bb8c;fill-opacity:1;stroke:#000000;stroke-width:0.1;stroke-opacity:1"
           d="m 36.371536,12.306502 c 0.08637,0.344896 0.337614,0.520469 0.821954,0.456642 -0.112753,-0.323819 -0.346579,-0.608478 -0.821954,-0.456642 z"
           id="path62"
           sodipodi:nodetypes="ccc" /><path
           style="fill:#79564b;fill-opacity:1;stroke:#000000;stroke-width:0.1;stroke-opacity:1"
           d="m 37.044091,12.479879 -0.05853,0.14732"
           id="path63" /><path
           style="fill:#c2c1ac;fill-opacity:1;stroke:#000000;stroke-width:0.05;stroke-dasharray:none;stroke-opacity:1"
           d="m 34.69503,13.993447 c 0.004,0.02825 -0.05247,0.326931 -0.05247,0.326931 l 0.217953,-0.238135 0.01212,0.298678 0.230063,-0.246207 v 0.330967 l 0.314822,-0.286569 -0.108979,0.460125 0.375367,-0.423799 c 0,0 -0.141266,0.480305 -0.108976,0.456088 0.03229,-0.02422 0.387471,-0.407654 0.387471,-0.407654 l -0.125121,0.476269 0.387474,-0.439944 -0.09283,0.500487 0.351147,-0.492414 -0.125121,0.58121 0.351147,-0.536812 c 0,0 -0.108977,0.532776 -0.08072,0.52874 0.02825,-0.004 0.399582,-0.480306 0.399582,-0.480306 l -0.125122,0.544885 c 0,0 0.383437,-0.504523 0.375365,-0.47627 -0.0081,0.02825 -0.100904,0.516631 -0.100904,0.516631 l 0.395544,-0.456088 -0.117049,0.49645 0.375367,-0.460125 -0.185666,0.548921 0.407654,-0.516631 -0.104939,0.504523 0.363257,-0.468197 c 0,0 -0.08476,0.460125 -0.08073,0.476269 0.004,0.01614 0.330968,-0.456089 0.330968,-0.456089 l -0.0888,0.516632 0.351147,-0.47627 -0.145301,0.508559 0.375364,-0.484342 c 0,0 -0.169519,0.609464 -0.153374,0.569102 0.01614,-0.04036 0.34711,-0.556993 0.34711,-0.556993 0,0 -0.117049,0.52874 -0.113012,0.544885 0.004,0.01614 0.435907,-0.589283 0.435907,-0.565066 0,0.02422 -0.125122,0.637717 -0.125122,0.637717 l 0.391512,-0.6135 -0.125124,0.637717 0.423802,-0.641753 -0.117052,0.69826 c 0,0 0.359222,-0.754766 0.359222,-0.714405 0,0.04036 -0.07265,0.730549 -0.07265,0.730549 l 0.415727,-0.762838 -0.07669,0.714404 0.435906,-0.819345 c -1.231258,0.274857 -3.835934,-0.169695 -6.385246,-0.585247 z"
           id="path64"
           sodipodi:nodetypes="cccccccccscccccccccccccccccccccccccsccscccccsccccc" /></g><g
         id="g5"
         style="fill:#79564b;fill-opacity:1"
         transform="translate(-4.9208493,-11.010448)"
         inkscape:label="front leg"
         inkscape:transform-center-x="-0.67490868"
         inkscape:transform-center-y="5.2280305"><path
           style="fill:#79564b;fill-opacity:1;stroke:#000000;stroke-width:0.100012;stroke-dasharray:none;stroke-opacity:1"
           d="M 9.9547958,11.256225 C 8.279437,12.9639 8.4951806,14.548243 9.6123142,16.073799 c 0.8120368,2.083208 1.5516508,2.428287 2.3060418,3.127998 l 2.260378,0.410977 c 1.502487,-1.934313 2.430309,-3.733411 1.872232,-5.182886 C 16.581071,10.030199 14.965363,9.8625299 13.356779,9.6808108 12.222785,9.9961146 11.08879,10.343673 9.9547958,11.256225 Z"
           id="path1"
           sodipodi:nodetypes="ccccccc"
           transform="translate(13.735092,4.0923216)" /><g
           id="g4"
           style="fill:#79564b;fill-opacity:1"
           transform="translate(5.8123544,5.530744)"><path
             style="fill:#79564b;fill-opacity:1;stroke:#000000;stroke-width:0.100012;stroke-dasharray:none;stroke-opacity:1"
             d="m 19.725312,17.756449 c -0.331158,0.449698 -0.783453,0.788488 -0.340859,1.879157 0.06498,0.485688 0.03163,0.948686 -0.182657,1.369927 -0.630949,0.215354 -1.050745,0.563196 -0.593634,1.461254 0.392656,1.392809 0.0069,2.231712 -0.41628,3.189807 -0.04286,0.355577 0.677477,0.324671 1.055579,0.303504 0.286001,-0.02643 0.580033,-0.101052 0.844787,0 0.968201,0.209736 1.397508,0.166658 1.758072,0.09133 0.320857,0.182815 1.176569,0.211117 2.465867,0.11416 0.539109,-0.198605 0.347973,-0.459803 0.151156,-0.721488 l 0.314822,0.363257 c 0.816216,-0.04081 0.357509,-0.326794 0.104941,-0.573138 -0.733645,-1.15487 -1.25062,-1.246083 -1.751704,-1.259289 -0.297143,0.02082 -0.527513,-0.02295 -1.089769,0.242171 -0.449187,0.258754 -1.022797,0.206449 -1.687125,-0.07265 -0.623956,-1.119353 -1.010634,-2.088429 -0.355184,-2.397492 0.02837,-1.00966 0.437227,-1.829078 1.283507,-2.429783 l 0.113013,-0.379401 c 0.442885,-0.03608 0.591351,-0.36657 0.694223,-0.742658 z"
             id="path2"
             sodipodi:nodetypes="cccccccccccccccccccc" /><path
             style="fill:#c8bfb0;fill-opacity:1;stroke:#000000;stroke-width:0.100012;stroke-dasharray:none;stroke-opacity:1"
             d="m 23.305867,24.658669 c 0.118036,0.19811 0.22445,0.402861 0.445226,0.542262 0.218235,-0.166196 0.385536,-0.171612 0.513722,-0.142701 -0.182726,-0.466134 -0.601781,-0.384066 -0.958948,-0.399561 z"
             id="path3"
             sodipodi:nodetypes="cccc" /><path
             style="fill:#c8bfb0;fill-opacity:1;stroke:#000000;stroke-width:0.100012;stroke-dasharray:none;stroke-opacity:1"
             d="m 23.956581,24.339019 c -0.0056,0.06468 0.365178,0.595553 0.43381,0.587927 0.195976,-0.262378 0.397659,-0.124497 0.593635,-0.02284 -0.330488,-0.621709 -0.682172,-0.564347 -1.027445,-0.565087 z"
             id="path4"
             sodipodi:nodetypes="cccc" /></g></g></g></g></svg>
